<svg version="1.1"
	baseProfile="full"
	width="1000" height="1000"
	xmlns="http://www.w3.org/2000/svg" >
<line x1="10" y1="10" x2="900" y2="10" stroke="blue"/>
<line x1="900" y1="10" x2="10" y2="900" stroke="blue"/>
<circle cx="121.25" cy="10" r="2" stroke="red"/>
<text x="123.25" y="18" style="font-family: sans-serif; font-size: 8pt;">1</text>
<circle cx="232.5" cy="10" r="2" stroke="red"/>
<text x="234.5" y="18" style="font-family: sans-serif; font-size: 8pt;">2</text>
<circle cx="343.75" cy="10" r="2" stroke="red"/>
<text x="345.75" y="18" style="font-family: sans-serif; font-size: 8pt;">3</text>
<circle cx="455" cy="10" r="2" stroke="red"/>
<text x="457" y="18" style="font-family: sans-serif; font-size: 8pt;">4</text>
<circle cx="566.25" cy="10" r="2" stroke="red"/>
<text x="568.25" y="18" style="font-family: sans-serif; font-size: 8pt;">5</text>
<circle cx="677.5" cy="10" r="2" stroke="red"/>
<text x="679.5" y="18" style="font-family: sans-serif; font-size: 8pt;">6</text>
<circle cx="788.75" cy="10" r="2" stroke="red"/>
<text x="790.75" y="18" style="font-family: sans-serif; font-size: 8pt;">7</text>
<circle cx="788.75" cy="121.25" r="2" stroke="red"/>
<text x="790.75" y="129.25" style="font-family: sans-serif; font-size: 8pt;">1</text>
<circle cx="677.5" cy="232.5" r="2" stroke="red"/>
<text x="679.5" y="240.5" style="font-family: sans-serif; font-size: 8pt;">2</text>
<circle cx="566.25" cy="343.75" r="2" stroke="red"/>
<text x="568.25" y="351.75" style="font-family: sans-serif; font-size: 8pt;">3</text>
<circle cx="455" cy="455" r="2" stroke="red"/>
<text x="457" y="463" style="font-family: sans-serif; font-size: 8pt;">4</text>
<circle cx="343.75" cy="566.25" r="2" stroke="red"/>
<text x="345.75" y="574.25" style="font-family: sans-serif; font-size: 8pt;">5</text>
<circle cx="232.5" cy="677.5" r="2" stroke="red"/>
<text x="234.5" y="685.5" style="font-family: sans-serif; font-size: 8pt;">6</text>
<circle cx="121.25" cy="788.75" r="2" stroke="red"/>
<text x="123.25" y="796.75" style="font-family: sans-serif; font-size: 8pt;">7</text>
<line x1="121.25" y1="10" x2="788.75" y2="121.25" stroke="orange"/>
<line x1="232.5" y1="10" x2="677.5" y2="232.5" stroke="orange"/>
<line x1="343.75" y1="10" x2="566.25" y2="343.75" stroke="orange"/>
<line x1="455" y1="10" x2="455" y2="455" stroke="orange"/>
<line x1="566.25" y1="10" x2="343.75" y2="566.25" stroke="orange"/>
<line x1="677.5" y1="10" x2="232.5" y2="677.5" stroke="orange"/>
<line x1="788.75" y1="10" x2="121.25" y2="788.75" stroke="orange"/>
<circle cx="288.125" cy="37.8125" r="2" stroke="blue"/>
<circle cx="399.375" cy="93.4375" r="2" stroke="blue"/>
<circle cx="455" cy="176.875" r="2" stroke="blue"/>
<circle cx="455" cy="288.125" r="2" stroke="blue"/>
<circle cx="399.375" cy="427.187" r="2" stroke="blue"/>
<circle cx="288.125" cy="594.062" r="2" stroke="blue"/>
<line x1="288.125" y1="37.8125" x2="399.375" y2="93.4375" stroke="purple"/>
<line x1="399.375" y1="93.4375" x2="455" y2="176.875" stroke="purple"/>
<line x1="455" y1="176.875" x2="455" y2="288.125" stroke="purple"/>
<line x1="455" y1="288.125" x2="399.375" y2="427.187" stroke="purple"/>
<line x1="399.375" y1="427.187" x2="288.125" y2="594.062" stroke="purple"/>
</svg>
