<svg version="1.1"
	baseProfile="full"
	width="1000" height="1000"
	xmlns="http://www.w3.org/2000/svg" >
<line x1="10" y1="500" x2="10" y2="10" stroke="blue"/>
<line x1="10" y1="10" x2="900" y2="10" stroke="blue"/>
<circle cx="10" cy="475.5" r="2" stroke="red"/>
<text x="12" y="483.5" style="font-family: sans-serif; font-size: 8pt;">1</text>
<circle cx="10" cy="451" r="2" stroke="red"/>
<text x="12" y="459" style="font-family: sans-serif; font-size: 8pt;">2</text>
<circle cx="10" cy="426.5" r="2" stroke="red"/>
<text x="12" y="434.5" style="font-family: sans-serif; font-size: 8pt;">3</text>
<circle cx="10" cy="402" r="2" stroke="red"/>
<text x="12" y="410" style="font-family: sans-serif; font-size: 8pt;">4</text>
<circle cx="10" cy="377.5" r="2" stroke="red"/>
<text x="12" y="385.5" style="font-family: sans-serif; font-size: 8pt;">5</text>
<circle cx="10" cy="353" r="2" stroke="red"/>
<text x="12" y="361" style="font-family: sans-serif; font-size: 8pt;">6</text>
<circle cx="10" cy="328.5" r="2" stroke="red"/>
<text x="12" y="336.5" style="font-family: sans-serif; font-size: 8pt;">7</text>
<circle cx="10" cy="304" r="2" stroke="red"/>
<text x="12" y="312" style="font-family: sans-serif; font-size: 8pt;">8</text>
<circle cx="10" cy="279.5" r="2" stroke="red"/>
<text x="12" y="287.5" style="font-family: sans-serif; font-size: 8pt;">9</text>
<circle cx="10" cy="255" r="2" stroke="red"/>
<text x="12" y="263" style="font-family: sans-serif; font-size: 8pt;">10</text>
<circle cx="10" cy="230.5" r="2" stroke="red"/>
<text x="12" y="238.5" style="font-family: sans-serif; font-size: 8pt;">11</text>
<circle cx="10" cy="206" r="2" stroke="red"/>
<text x="12" y="214" style="font-family: sans-serif; font-size: 8pt;">12</text>
<circle cx="10" cy="181.5" r="2" stroke="red"/>
<text x="12" y="189.5" style="font-family: sans-serif; font-size: 8pt;">13</text>
<circle cx="10" cy="157" r="2" stroke="red"/>
<text x="12" y="165" style="font-family: sans-serif; font-size: 8pt;">14</text>
<circle cx="10" cy="132.5" r="2" stroke="red"/>
<text x="12" y="140.5" style="font-family: sans-serif; font-size: 8pt;">15</text>
<circle cx="10" cy="108" r="2" stroke="red"/>
<text x="12" y="116" style="font-family: sans-serif; font-size: 8pt;">16</text>
<circle cx="10" cy="83.5" r="2" stroke="red"/>
<text x="12" y="91.5" style="font-family: sans-serif; font-size: 8pt;">17</text>
<circle cx="10" cy="59" r="2" stroke="red"/>
<text x="12" y="67" style="font-family: sans-serif; font-size: 8pt;">18</text>
<circle cx="10" cy="34.5" r="2" stroke="red"/>
<text x="12" y="42.5" style="font-family: sans-serif; font-size: 8pt;">19</text>
<circle cx="54.5" cy="10" r="2" stroke="red"/>
<text x="56.5" y="18" style="font-family: sans-serif; font-size: 8pt;">1</text>
<circle cx="99" cy="10" r="2" stroke="red"/>
<text x="101" y="18" style="font-family: sans-serif; font-size: 8pt;">2</text>
<circle cx="143.5" cy="10" r="2" stroke="red"/>
<text x="145.5" y="18" style="font-family: sans-serif; font-size: 8pt;">3</text>
<circle cx="188" cy="10" r="2" stroke="red"/>
<text x="190" y="18" style="font-family: sans-serif; font-size: 8pt;">4</text>
<circle cx="232.5" cy="10" r="2" stroke="red"/>
<text x="234.5" y="18" style="font-family: sans-serif; font-size: 8pt;">5</text>
<circle cx="277" cy="10" r="2" stroke="red"/>
<text x="279" y="18" style="font-family: sans-serif; font-size: 8pt;">6</text>
<circle cx="321.5" cy="10" r="2" stroke="red"/>
<text x="323.5" y="18" style="font-family: sans-serif; font-size: 8pt;">7</text>
<circle cx="366" cy="10" r="2" stroke="red"/>
<text x="368" y="18" style="font-family: sans-serif; font-size: 8pt;">8</text>
<circle cx="410.5" cy="10" r="2" stroke="red"/>
<text x="412.5" y="18" style="font-family: sans-serif; font-size: 8pt;">9</text>
<circle cx="455" cy="10" r="2" stroke="red"/>
<text x="457" y="18" style="font-family: sans-serif; font-size: 8pt;">10</text>
<circle cx="499.5" cy="10" r="2" stroke="red"/>
<text x="501.5" y="18" style="font-family: sans-serif; font-size: 8pt;">11</text>
<circle cx="544" cy="10" r="2" stroke="red"/>
<text x="546" y="18" style="font-family: sans-serif; font-size: 8pt;">12</text>
<circle cx="588.5" cy="10" r="2" stroke="red"/>
<text x="590.5" y="18" style="font-family: sans-serif; font-size: 8pt;">13</text>
<circle cx="633" cy="10" r="2" stroke="red"/>
<text x="635" y="18" style="font-family: sans-serif; font-size: 8pt;">14</text>
<circle cx="677.5" cy="10" r="2" stroke="red"/>
<text x="679.5" y="18" style="font-family: sans-serif; font-size: 8pt;">15</text>
<circle cx="722" cy="10" r="2" stroke="red"/>
<text x="724" y="18" style="font-family: sans-serif; font-size: 8pt;">16</text>
<circle cx="766.5" cy="10" r="2" stroke="red"/>
<text x="768.5" y="18" style="font-family: sans-serif; font-size: 8pt;">17</text>
<circle cx="811" cy="10" r="2" stroke="red"/>
<text x="813" y="18" style="font-family: sans-serif; font-size: 8pt;">18</text>
<circle cx="855.5" cy="10" r="2" stroke="red"/>
<text x="857.5" y="18" style="font-family: sans-serif; font-size: 8pt;">19</text>
<line x1="10" y1="475.5" x2="54.5" y2="10" stroke="yellow"/>
<line x1="10" y1="451" x2="99" y2="10" stroke="yellow"/>
<line x1="10" y1="426.5" x2="143.5" y2="10" stroke="yellow"/>
<line x1="10" y1="402" x2="188" y2="10" stroke="yellow"/>
<line x1="10" y1="377.5" x2="232.5" y2="10" stroke="yellow"/>
<line x1="10" y1="353" x2="277" y2="10" stroke="yellow"/>
<line x1="10" y1="328.5" x2="321.5" y2="10" stroke="yellow"/>
<line x1="10" y1="304" x2="366" y2="10" stroke="yellow"/>
<line x1="10" y1="279.5" x2="410.5" y2="10" stroke="yellow"/>
<line x1="10" y1="255" x2="455" y2="10" stroke="yellow"/>
<line x1="10" y1="230.5" x2="499.5" y2="10" stroke="yellow"/>
<line x1="10" y1="206" x2="544" y2="10" stroke="yellow"/>
<line x1="10" y1="181.5" x2="588.5" y2="10" stroke="yellow"/>
<line x1="10" y1="157" x2="633" y2="10" stroke="yellow"/>
<line x1="10" y1="132.5" x2="677.5" y2="10" stroke="yellow"/>
<line x1="10" y1="108" x2="722" y2="10" stroke="yellow"/>
<line x1="10" y1="83.5" x2="766.5" y2="10" stroke="yellow"/>
<line x1="10" y1="59" x2="811" y2="10" stroke="yellow"/>
<line x1="10" y1="34.5" x2="855.5" y2="10" stroke="yellow"/>
<circle cx="14.45" cy="428.95" r="2" stroke="orange"/>
<circle cx="23.35" cy="384.85" r="2" stroke="orange"/>
<circle cx="36.7" cy="343.2" r="2" stroke="orange"/>
<circle cx="54.5" cy="304" r="2" stroke="orange"/>
<circle cx="76.75" cy="267.25" r="2" stroke="orange"/>
<circle cx="103.45" cy="232.95" r="2" stroke="orange"/>
<circle cx="134.6" cy="201.1" r="2" stroke="orange"/>
<circle cx="170.2" cy="171.7" r="2" stroke="orange"/>
<circle cx="210.25" cy="144.75" r="2" stroke="orange"/>
<circle cx="254.75" cy="120.25" r="2" stroke="orange"/>
<circle cx="303.7" cy="98.2" r="2" stroke="orange"/>
<circle cx="357.1" cy="78.6" r="2" stroke="orange"/>
<circle cx="414.95" cy="61.45" r="2" stroke="orange"/>
<circle cx="477.25" cy="46.75" r="2" stroke="orange"/>
<circle cx="544" cy="34.5" r="2" stroke="orange"/>
<circle cx="615.2" cy="24.7" r="2" stroke="orange"/>
<circle cx="690.85" cy="17.35" r="2" stroke="orange"/>
<circle cx="770.95" cy="12.45" r="2" stroke="orange"/>
<line x1="14.45" y1="428.95" x2="23.35" y2="384.85" stroke="purple"/>
<line x1="23.35" y1="384.85" x2="36.7" y2="343.2" stroke="purple"/>
<line x1="36.7" y1="343.2" x2="54.5" y2="304" stroke="purple"/>
<line x1="54.5" y1="304" x2="76.75" y2="267.25" stroke="purple"/>
<line x1="76.75" y1="267.25" x2="103.45" y2="232.95" stroke="purple"/>
<line x1="103.45" y1="232.95" x2="134.6" y2="201.1" stroke="purple"/>
<line x1="134.6" y1="201.1" x2="170.2" y2="171.7" stroke="purple"/>
<line x1="170.2" y1="171.7" x2="210.25" y2="144.75" stroke="purple"/>
<line x1="210.25" y1="144.75" x2="254.75" y2="120.25" stroke="purple"/>
<line x1="254.75" y1="120.25" x2="303.7" y2="98.2" stroke="purple"/>
<line x1="303.7" y1="98.2" x2="357.1" y2="78.6" stroke="purple"/>
<line x1="357.1" y1="78.6" x2="414.95" y2="61.45" stroke="purple"/>
<line x1="414.95" y1="61.45" x2="477.25" y2="46.75" stroke="purple"/>
<line x1="477.25" y1="46.75" x2="544" y2="34.5" stroke="purple"/>
<line x1="544" y1="34.5" x2="615.2" y2="24.7" stroke="purple"/>
<line x1="615.2" y1="24.7" x2="690.85" y2="17.35" stroke="purple"/>
<line x1="690.85" y1="17.35" x2="770.95" y2="12.45" stroke="purple"/>
</svg>
