<svg version="1.1"
	baseProfile="full"
	width="1000" height="1000"
	xmlns="http://www.w3.org/2000/svg" >
<line x1="10" y1="10" x2="10" y2="900" stroke="blue"/>
<line x1="10" y1="900" x2="900" y2="10" stroke="blue"/>
<circle cx="10" cy="99" r="2" stroke="red"/>
<text x="12" y="107" style="font-family: sans-serif; font-size: 8pt;">1</text>
<circle cx="10" cy="188" r="2" stroke="red"/>
<text x="12" y="196" style="font-family: sans-serif; font-size: 8pt;">2</text>
<circle cx="10" cy="277" r="2" stroke="red"/>
<text x="12" y="285" style="font-family: sans-serif; font-size: 8pt;">3</text>
<circle cx="10" cy="366" r="2" stroke="red"/>
<text x="12" y="374" style="font-family: sans-serif; font-size: 8pt;">4</text>
<circle cx="10" cy="455" r="2" stroke="red"/>
<text x="12" y="463" style="font-family: sans-serif; font-size: 8pt;">5</text>
<circle cx="10" cy="544" r="2" stroke="red"/>
<text x="12" y="552" style="font-family: sans-serif; font-size: 8pt;">6</text>
<circle cx="10" cy="633" r="2" stroke="red"/>
<text x="12" y="641" style="font-family: sans-serif; font-size: 8pt;">7</text>
<circle cx="10" cy="722" r="2" stroke="red"/>
<text x="12" y="730" style="font-family: sans-serif; font-size: 8pt;">8</text>
<circle cx="10" cy="811" r="2" stroke="red"/>
<text x="12" y="819" style="font-family: sans-serif; font-size: 8pt;">9</text>
<circle cx="99" cy="811" r="2" stroke="red"/>
<text x="101" y="819" style="font-family: sans-serif; font-size: 8pt;">1</text>
<circle cx="188" cy="722" r="2" stroke="red"/>
<text x="190" y="730" style="font-family: sans-serif; font-size: 8pt;">2</text>
<circle cx="277" cy="633" r="2" stroke="red"/>
<text x="279" y="641" style="font-family: sans-serif; font-size: 8pt;">3</text>
<circle cx="366" cy="544" r="2" stroke="red"/>
<text x="368" y="552" style="font-family: sans-serif; font-size: 8pt;">4</text>
<circle cx="455" cy="455" r="2" stroke="red"/>
<text x="457" y="463" style="font-family: sans-serif; font-size: 8pt;">5</text>
<circle cx="544" cy="366" r="2" stroke="red"/>
<text x="546" y="374" style="font-family: sans-serif; font-size: 8pt;">6</text>
<circle cx="633" cy="277" r="2" stroke="red"/>
<text x="635" y="285" style="font-family: sans-serif; font-size: 8pt;">7</text>
<circle cx="722" cy="188" r="2" stroke="red"/>
<text x="724" y="196" style="font-family: sans-serif; font-size: 8pt;">8</text>
<circle cx="811" cy="99" r="2" stroke="red"/>
<text x="813" y="107" style="font-family: sans-serif; font-size: 8pt;">9</text>
<line x1="10" y1="99" x2="99" y2="811" stroke="orange"/>
<line x1="10" y1="188" x2="188" y2="722" stroke="orange"/>
<line x1="10" y1="277" x2="277" y2="633" stroke="orange"/>
<line x1="10" y1="366" x2="366" y2="544" stroke="orange"/>
<line x1="10" y1="455" x2="455" y2="455" stroke="orange"/>
<line x1="10" y1="544" x2="544" y2="366" stroke="orange"/>
<line x1="10" y1="633" x2="633" y2="277" stroke="orange"/>
<line x1="10" y1="722" x2="722" y2="188" stroke="orange"/>
<line x1="10" y1="811" x2="811" y2="99" stroke="orange"/>
<circle cx="27.8" cy="241.4" r="2" stroke="blue"/>
<circle cx="63.4" cy="348.2" r="2" stroke="blue"/>
<circle cx="116.8" cy="419.4" r="2" stroke="blue"/>
<circle cx="188" cy="455" r="2" stroke="blue"/>
<circle cx="277" cy="455" r="2" stroke="blue"/>
<circle cx="383.8" cy="419.4" r="2" stroke="blue"/>
<circle cx="508.4" cy="348.2" r="2" stroke="blue"/>
<circle cx="650.8" cy="241.4" r="2" stroke="blue"/>
<line x1="27.8" y1="241.4" x2="63.4" y2="348.2" stroke="purple"/>
<line x1="63.4" y1="348.2" x2="116.8" y2="419.4" stroke="purple"/>
<line x1="116.8" y1="419.4" x2="188" y2="455" stroke="purple"/>
<line x1="188" y1="455" x2="277" y2="455" stroke="purple"/>
<line x1="277" y1="455" x2="383.8" y2="419.4" stroke="purple"/>
<line x1="383.8" y1="419.4" x2="508.4" y2="348.2" stroke="purple"/>
<line x1="508.4" y1="348.2" x2="650.8" y2="241.4" stroke="purple"/>
</svg>
