<?xml version="1.0" standalone="no"?>
<!DOCTYPE svg PUBLIC "-//W3C//DTD SVG 1.1//EN" "http://www.w3.org/Graphics/SVG/1.1/DTD/svg11.dtd" >
<svg xmlns="http://www.w3.org/2000/svg" xmlns:xlink="http://www.w3.org/1999/xlink" version="1.1">
<metadata>
Created by FontForge 20170812 at Wed Sep 23 07:05:27 2020
 By www-data
</metadata>
<defs>
<font id="jenkinsE5" horiz-adv-x="560" >
  <font-face 
    font-family="jenkinsE5"
    font-weight="400"
    font-variant="small-caps"
    font-stretch="normal"
    units-per-em="1000"
    panose-1="2 0 5 3 0 0 0 0 0 0"
    ascent="800"
    descent="-200"
    x-height="297"
    cap-height="591"
    bbox="26 -27 728.6 800"
    underline-thickness="50"
    underline-position="-150"
    unicode-range="U+000D-00A0"
  />
<missing-glyph horiz-adv-x="364" 
d="M33 0v666h265v-666h-265zM66 33h199v600h-199v-600z" />
    <glyph glyph-name=".notdef" horiz-adv-x="364" 
d="M33 0v666h265v-666h-265zM66 33h199v600h-199v-600z" />
    <glyph glyph-name=".null" 
 />
    <glyph glyph-name=".null" 
 />
    <glyph glyph-name="nonmarkingreturn" horiz-adv-x="333" 
 />
    <glyph glyph-name="CR" unicode="&#xd;" 
 />
    <glyph glyph-name="space" unicode=" " 
 />
    <glyph glyph-name="exclam" unicode="!" horiz-adv-x="166" 
d="M61 86q1 0 7.5 0.5t10.5 0.5q19 0 21 -2q0 -3 9 -14q11 -16 11 -33q0 -31 -30 -31q-29 0 -41 23q-5 10 -5 21q0 30 17 35zM79 687q6 9 22 9q10 0 11 -5q2 -6 10 -6q6 0 12 -8q4 -5 4 -16t-6 -67q-15 -150 -23 -235q-2 -28 -2 -35q0 -18 3 -32q4 -16 4 -27q0 -10 -6 -22
t-10.5 -14.5t-19.5 -2.5q-22 0 -40 28q-8 11 -8 35q0 8 2 9q4 2 4 32q0 29 3 29q4 0 6 22q2 17 12 104t13 133q4 62 9 69z" />
    <glyph glyph-name="quotedbl" unicode="&#x22;" horiz-adv-x="336" 
d="M53 675q7 7 22 5q23 -3 32 -12t9 -31q0 -15 -5 -50q-5 -30 -5 -49q0 -22 -5.5 -47t-10.5 -31q-8 -8 -18 -8q-11 0 -23 10q-10 10 -10 13t-6 9q-5 5 -5 18q0 10 1 18q2 30 6 32q4 1 7.5 58.5t10.5 64.5zM255 687q2 5 7.5 5.5t8.5 -4.5q2 -5 17 -11q21 -10 21 -37
q0 -14 -6.5 -53t-8.5 -39q-3 0 -3 -10q0 -12 -8 -27t-16 -19q-6 -2 -9 -2q-14 0 -26 25q-8 19 -8 33q0 2 0.5 8.5t0.5 10.5q2 30 4 52q3 27 3 33q1 29 14 29q7 0 9 6z" />
    <glyph glyph-name="quotesingle" unicode="'" horiz-adv-x="130" 
d="M38 703q4 7 14 7q14 0 24 -10q7 -7 12 -7q2 0 10 -10q5 -8 5 -31q0 -41 -15 -98q-1 -4 -4 -13t-3 -11q-2 -7 -12.5 -14.5t-18.5 -7.5h-1q-7 2 -16 25q-7 18 -7 34q0 14 3 59q4 68 9 77z" />
    <glyph glyph-name="comma" unicode="," horiz-adv-x="226" 
d="M135 292q11 8 21 8q13 0 28 -14t15 -27q0 -10 -4 -26q-3 -15 -18.5 -42t-22.5 -30q-7 -2 -10 -12q-4 -8 -15 -17t-22 -12q-9 -2 -20 -11q-9 -9 -23 -9q-13 0 -24 7q-12 7 -12 13t11 14q8 6 33.5 36t28.5 33q8 10 16 31.5t8 34.5q0 15 10 23z" />
    <glyph glyph-name="period" unicode="." horiz-adv-x="156" 
d="M37 222l12 6t17 5q6 0 15 -3q15 -5 31.5 -21t16.5 -24q0 -7 -3 -7q-1 0 -7 -21q-6 -31 -35 -31q-15 0 -31 8t-19 17q-7 17 -7 40q0 27 10 31z" />
    <glyph glyph-name="colon" unicode=":" horiz-adv-x="182" 
d="M59 289q6 3 14 3q22 0 48 -17.5t26 -28.5q0 -5 3 -5q4 0 4 -19q0 -18 -3 -18q-4 0 -6 -9q-2 -8 -16 -23t-24 -20q-6 -3 -14 -3q-19 0 -35 14q-13 11 -16 11q-4 0 -8 27.5t-4 53.5q0 14 2 24q2 7 12 7q11 0 17 3zM59 553q21 21 31 21t35 -23q14 -13 14 -31q0 -25 -14 -49
t-32 -30q-8 -2 -11 -2q-23 0 -32 19q-4 11 -8 13q-5 3 -5 32v28z" />
    <glyph glyph-name="semicolon" unicode=";" horiz-adv-x="179" 
d="M73 155q0 5 7.5 13t13.5 8q22 0 22 -7q0 -4 12 -16q16 -18 16 -39q0 -6 -2 -12q-3 -6 -13 -16t-23 -21.5t-16 -14.5q-6 -6 -25 -14q-9 -3 -12.5 -2t-10.5 8q-11 11 -11 21q0 14 21 50q12 22 12 27t4 8t5 7zM54 520q7 10 17 10q9 0 21 -4q31 -9 48 -38q9 -16 9 -29
q0 -16 -12 -34q-11 -17 -30 -22q-15 -4 -24 -4q-10 0 -19 9q-18 20 -18 73q0 28 8 39z" />
    <glyph glyph-name="question" unicode="?" horiz-adv-x="407" 
d="M168 250q8 8 13 8q8 0 21 -9.5t18 -17.5q2 -4 7 -12.5t6 -10.5q6 -11 6 -22t-7 -18t-30 -7q-16 0 -20 4q-21 18 -21 59q0 19 7 26zM189 722q5 3 26 3h16q6 0 33 -0.5t43 -3t23 -7.5q8 -8 8 -11q0 -4 17 -23q20 -22 20 -38q0 -8 -4 -12q-10 -10 -24 -40q-2 -7 -18 -28
q-46 -63 -46 -66t-9 -16q-10 -15 -10 -29q0 -16 -5 -16q-6 0 -8 -5q-3 -8 -20 -8q-9 0 -16 3q-23 9 -27 51l-2 24l21 21q20 22 20 27q0 2 19 21q21 21 28 32q9 14 13 16q3 1 3 9q0 7 5 12q4 3 4 6q0 6 -15.5 11.5t-26.5 5.5h-4q-3 -1 -10.5 2t-8.5 2q-2 -3 -31 -8
q-12 -2 -12 -5t-23 -5q-15 -1 -41.5 -12t-37.5 -19q-7 -6 -22 -6q-8 0 -11 1q-12 5 -20 20.5t-8 30.5t9 21q8 6 17 8q38 10 41 14q4 5 76 12q11 2 18 5z" />
    <glyph glyph-name="A" unicode="A" horiz-adv-x="572" 
d="M323 472q-2 0 -7 -11.5t-8 -11.5q-10 0 -17 -36l-2 -10t-1 -8l-1 -3q0 -1 5 -1q10 0 57 7t55 7q12 0 17.5 4.5t3.5 12.5q0 5 -5.5 66t-7.5 61q-3 0 -3 19q0 17 -6 17q-5 0 -15 -3q-13 -4 -13 -13t-9 -18t-9 -14q0 -4 -11 -17t-11 -21q0 -7 -4.5 -17t-7.5 -10zM84 231
q0 2 18.5 23t18.5 22q0 4 15.5 24t18.5 20t8 12q3 6 17.5 26.5t17.5 27.5q3 9 10 13q5 5 35 62q7 12 13 18q5 3 5 9t12 23q15 25 22 39q11 21 14 21t10 14q7 16 22 36q16 21 16 26t3 6t18 23.5t22 38.5q7 18 13 20q4 2 11 2q14 0 21 -9q4 -4 15.5 -10t14.5 -19q4 -13 2 -29
q-2 -12 -2 -35q0 -52 6 -131t10 -87q4 -5 14 -4q6 1 8 0.5t1 -3.5q-1 -2 1.5 -3.5t6.5 -1.5q7 0 15 -7t8 -13q0 -3 -17 -9.5t-18 -7.5q-1 -3 -12 -7q-8 -3 -8 -14q0 -12 1 -22q3 -50 12.5 -97.5t16.5 -47.5q3 0 3 -18q0 -14 -2 -17t-15 -8q-18 -8 -29 -2q-32 16 -46 130
q-4 34 -4 52v21l-15 4q-15 4 -17 0q-1 -3 -8 -3t-12 -5q-4 -4 -33 -12q-55 -11 -55 -17l-3 -1q-4 0 -8 -0.5t-5 -1.5q-7 -5 -31 -5q-25 -1 -29 -10q-6 -9 -9 -11q-6 -4 -26 -43q-11 -23 -17 -28t-14.5 -16.5t-8.5 -15.5t-13 -21q-13 -19 -15 -26t-14.5 -15t-21.5 -8
q-7 0 -21 6q-14 7 -18 28q-2 14 -2 17q0 15 16 30q8 7 22.5 25.5t14.5 21.5z" />
    <glyph glyph-name="B" unicode="B" horiz-adv-x="651" 
d="M189 446q3 0 14 7.5t14 7.5q5 0 29 11.5t25 14.5l7 3q7 3 13 6.5t6 4.5q0 4 5 4q6 0 20 7q26 13 31 15q17 7 19 11q1 1 21 12q18 8 26 16q5 5 10 5q4 0 15.5 7.5t14.5 11.5q4 4 20 12.5t20 12.5q47 38 54 50q1 1 1 3q0 4 -27 12q-15 4 -57 4q-30 0 -36 -3q-2 -2 -28 -4
q-92 -8 -179 -19q-76 -8 -80 -8h-2q-7 2 -17 -7q-9 -9 -11 -9q-3 0 -3 -67q0 -66 -5 -71q-4 -4 -4 -30t-3 -29q-4 -4 -6 -79q-1 -51 -4 -76.5t-4 -66.5q-1 -44 -2 -53.5t-8 -16.5q-6 -7 -9 -8t-13 2q-12 4 -15 8t-8 25q-4 13 -4 35q0 4 2 56q11 212 11 297q0 61 -5 116
q0 3 -0.5 6.5t-0.5 5.5q0 16 8 21.5t29 7.5q17 1 29 4t33 4q17 1 26 2.5t16.5 2t29.5 0.5q34 0 40 3q4 3 55 8q26 2 33 2l10 -1q2 -1 3 0.5t1 4.5q0 5 0.5 5t4.5 -4q5 -7 29 -7q18 0 23 5t48 5h25q68 -1 75 -7q7 -7 15 -7q10 0 27 -18t23 -35q5 -15 5 -19q0 -7 -4 -18
q-5 -16 -19.5 -35t-21.5 -19q-5 0 -5 -3q0 -10 -40 -34q-20 -11 -22 -16q-3 -5 -22 -16.5t-24 -11.5q-6 0 -8 -3q-1 -2 -19.5 -12t-19.5 -11q-5 -5 -20 -11.5t-23 -6.5q-13 0 -13 -4q0 -3 -4 -3q-3 0 -14 -7.5t-15 -7.5q-8 0 -18.5 -5t-10.5 -9q0 -5 -5 -5q-6 0 -13 -12
l-7 -13l27 -2q26 -2 35 -7q15 -6 24 -6q32 -2 63 -14q10 -5 19 -5q5 0 25 -6.5t23 -9.5q2 -2 8 -2q5 0 21 -16t16 -20q0 -3 9 -14q12 -14 12 -33q0 -13 -4 -26q-6 -21 -43 -48q-29 -20 -31 -20t-13 -11t-22 -13q-6 -1 -11.5 -5.5t-13.5 -4.5q-9 0 -28 -7.5t-27 -8.5
q-12 -2 -19 -6q-2 -2 -18.5 -5.5t-35 -6.5t-20.5 -4q-73 -10 -116 -10q-20 0 -28 3q-10 5 -17 5q-18 0 -18 28q-1 13 0.5 15.5t9.5 4.5q55 12 72 13q20 2 31 6q4 3 49 11q74 12 137 33q18 6 19 9q3 6 17 11q16 6 38.5 22.5t24.5 23.5l1 1v2q0 7 -8 11.5t-22 9t-19 6.5
q-1 0 -49.5 8.5t-48.5 9.5q0 3 -41 5q-88 6 -110 9q-17 3 -33 3q-13 0 -21.5 10t-8.5 26v14q0 17 3.5 22.5t17.5 10.5q14 4 23 13t14 9z" />
    <glyph glyph-name="C" unicode="C" horiz-adv-x="643" 
d="M198 533q0 -2 -20.5 -26t-20.5 -25q0 -2 -14 -22t-19 -25q-10 -10 -28 -76q-5 -17 -5 -51q0 -30 4 -47q17 -77 91 -91q14 -2 16 -6q3 -4 69 -4q86 0 89 5q2 4 28 8q108 17 142 47q8 8 13 11q8 5 9 12.5t-6 9.5q-20 6 -20 25q0 16 16 16q9 0 18 -3q11 -3 27.5 -17
t16.5 -20q0 -5 8 -21q7 -15 5 -28q-1 -8 -9.5 -19.5t-12.5 -11.5h-1q-2 2 -14 -11q-10 -10 -34 -21.5t-43 -17.5l-19 -7q-6 0 -11 -5q-3 -3 -28.5 -8t-28.5 -7q-12 -7 -133 -7q-69 0 -81 4q-86 26 -111 57q-3 3 -9 10.5t-9 10.5q-17 20 -34 69q-9 26 -9 83q0 58 9 85
q6 18 12 39q4 13 9 16q5 5 5 10q0 4 5 9q6 5 26 36.5t29 40.5q10 10 20 25q6 9 43.5 46.5t52.5 50.5q18 15 38 22q15 3 16 3q6 0 17 -6t11 -10q0 -3 13 -16q22 -20 26 -45q0 -1 0.5 -3t0.5 -3q0 -6 -16 -25q-18 -20 -19 -22q-9 -13 -27 -13q-11 0 -16 8q-2 4 1 5q4 2 4 9
q0 8 -7.5 6t-7.5 5q0 10 -12 3q-7 -4 -36 -33.5t-29 -33.5z" />
    <glyph glyph-name="D" unicode="D" horiz-adv-x="607" 
d="M186 718q-5 4 -23 10t-26 6q-7 0 -16 -6t-9 -11q0 -6 -4 -6q-3 0 -3 -8q0 -9 -5 -11t-5 -54q0 -59 5 -62q10 -3 19 -108q1 -7 5 -36.5t8 -54.5t7 -34q1 -2 3.5 -15.5t5.5 -25t4 -11.5q3 0 8 -18q6 -23 9.5 -28.5t11.5 -5.5q3 0 71 -2q69 -3 115 -3q69 0 89 7
q17 5 25.5 12.5t23.5 29.5q3 5 7 10.5t6.5 9.5t3.5 5q9 10 9 55q0 20 -2 28q-4 25 -8 25q-3 0 -3 7q0 4 -8 18t-9 16q-2 6 -15.5 26t-15.5 22q-7 7 -14 19q-25 41 -39 44q-7 0 -11 9q-12 19 -45 41q-15 10 -22 18q-8 10 -61 37q-20 11 -24 15q-3 3 -27 13t-29 10q-3 0 -12 7
zM267 752q0 -3 9.5 -7.5t9.5 -6.5q0 -3 19 -12q21 -8 38 -22q19 -15 23 -15t6 -6q2 -8 12 -13q9 -5 43 -38.5t46 -48.5q1 -2 11 -13.5t15 -17.5q15 -19 15 -25q0 -8 5 -10q5 -3 17 -20t12 -21q0 -2 6 -16q16 -30 16 -45q0 -6 3 -6t6 -21t3 -40q0 -49 -11 -60q-5 -5 -5 -17
q0 -9 -16 -43q-11 -21 -17 -29t-22 -18q-27 -17 -33 -18q-10 -2 -12 -6q-3 -6 -61 -6q-31 0 -45 3q-8 2 -15.5 4.5l-10.5 3.5t-9 2t-14.5 1.5t-23.5 1.5q-86 5 -103 11q-6 3 -11 3t-12.5 -2.5l-10.5 -3.5h-5q-15 0 -26 15t-11 37q0 13 -4 17q-5 5 -12 39q-39 191 -39 210
q0 10 -4 14q-2 2 -9 35t-7 34q-2 7 1 25q4 24 6 48q6 87 9 90q2 4 7 21t10 23q9 11 9 14t48 3q47 0 50 -6q2 -5 7 -5q4 0 21 -7.5t20 -7.5q4 0 20 -9t19 -9q7 0 7 -4z" />
    <glyph glyph-name="E" unicode="E" horiz-adv-x="500" 
d="M410 163q-5 0 -14 -7.5t-13 -7.5q-7 0 -8 -3q-2 -4 -14 -6q-13 -2 -38 -11q-61 -21 -151 -21q-78 0 -106 18q-24 15 -34 40q-2 4 -2 21q0 42 8 60q5 9 17 46.5t16 46.5q11 23 12 33q2 14 9 21t7 16q0 8 5 18q9 21 16.5 68.5t7.5 82.5q0 24 -4 31t-4 24q0 24 7 39
q4 9 7 11t13 2q15 0 18 5q3 3 18 3q8 0 22.5 -1t17.5 -1q107 6 122 10q3 1 11 1q10 0 37 -4t39 -4h7q5 1 13 1q21 0 21 -16q0 -7 -3.5 -10.5t-17.5 -8.5q-24 -9 -44 -12q-27 -7 -31 -9q-9 -5 -35 -7q-20 -2 -31 -6.5t-32 -6.5q-72 -10 -72 -16q0 -3 -7 -3q-14 0 -14 -15
q0 -6 1 -9q2 -6 2 -11q0 -2 -1.5 -7.5t-1.5 -14.5q-1 -18 -6 -46.5t-8 -30.5q-2 -1 -2 -5q0 -14 16 -24q10 -5 42 -7q19 -1 35.5 -4.5t36.5 -3.5q25 0 27 -5q5 -18 -5 -23q-3 -1 -11 -7t-17 -6q-7 0 -34.5 -9t-35.5 -9q-10 0 -16 -3.5t-16 -3.5q-11 0 -23 -4t-19 -5
q-9 -1 -11.5 -3.5t-1.5 -8.5q0 -3 -3 -5q-4 -2 -8 -21q-10 -32 -10 -33q-6 -12 -6 -17q0 -4 -7 -22q-6 -15 -6 -25q0 -15 16 -22q12 -6 76 -6q63 0 102 6q32 4 33 4q7 0 13 -3q3 -2 14 -2q22 0 32 8q2 2 5 2q4 0 11.5 -2t14 -4.5t7.5 -2.5q4 -1 4 -6.5t-4 -5.5q-3 0 -3 -8
q0 -7 -8 -7z" />
    <glyph glyph-name="F" unicode="F" horiz-adv-x="609" 
d="M367 710q0 4 16.5 9t16.5 7q0 4 30 4q29 0 29 -6q0 -7 8 -7q9 0 18 9q16 17 20 5q2 -5 12 -5q9 0 9 -4q0 -3 4.5 -4t9 0.5t5.5 4.5q1 6 7 0q4 -4 13 -4q7 0 12.5 -5.5t5.5 -13.5l-1 -2v-2q-2 -8 -15 -11q-5 -1 -21 -7q-51 -24 -124 -32q-9 -1 -30 -7t-31 -8
q-27 -3 -33 -11q-8 -10 -47 -10q-8 0 -16 -3.5t-17 -4.5q-15 -1 -28 -13q-11 -10 -16 -12q-8 -4 -13 -88q0 -9 -1 -18t-2 -14.5t-1 -6.5q0 -5 17 -5q5 0 15 2q15 6 30 9q17 4 22 7q13 6 21 -4q7 -8 44 -8q38 0 40 -3q2 -4 -2 -11t-9 -7q-2 0 -22 -9.5t-23 -9.5t-7.5 -7.5
t-10.5 -7.5t-18 -5.5t-19 -5.5q-11 0 -25 -7q-15 -8 -22 -6t-7 -1q0 -4 -12 -4q-13 0 -17 -10q-4 -9 -8 -9q-12 0 -19 -49q-5 -29 -7 -29q-4 0 -22 -73.5t-18 -87.5q0 -9 8 -9q5 0 19.5 5.5t18.5 5.5q3 0 4 -1q4 -4 2.5 -10.5t-5.5 -6.5q-5 0 -21 -18t-18 -29
q-5 -24 -24 -29q-14 -2 -18 -2q-18 0 -30 11l-12 10l-1 35q0 25 4.5 55t8.5 33q8 5 13 38q1 6 24 92l8 30q0 3 5 8q8 8 8 26q0 11 -4 15q-10 10 -1 15q3 2 0 4q-5 2 -5 7q0 11 15 23q12 9 15 19t7 53q12 147 12 195q0 13 6 22t16 9q5 0 26 -17t26 -17q4 0 65 16q34 8 59 8
q28 0 28 5z" />
    <glyph glyph-name="G" unicode="G" horiz-adv-x="746" 
d="M286 380q5 5 14 5q16 0 38 -12q42 -21 79 -21q16 0 18 -4t28 -4t26 4q0 3 5.5 3.5t11 -1t6.5 -3.5q1 -4 5 0q5 6 83 12q36 3 66 6q2 0 5 0.5t4 0.5q8 0 25 -17q18 -19 19 -33v-6q0 -11 -4 -21.5t-8 -10.5q-3 0 -1 -4t-4.5 -13t-11.5 -9t-3 -6q2 -5 -9 -16
q-22 -21 -43 -73q-6 -14 -6 -49v-11q0 -21 -4 -27.5t-18 -6.5q-15 0 -26 10q-11 11 -11 15t-3 5q-2 1 -8 23q-2 12 -2 23q0 46 10 49q3 2 3 8t12.5 30t20.5 36q9 12 7 18q-2 4 -7 4q-7 0 -44 -6q-22 -2 -65 -2q-102 0 -120 5q-4 1 -26 5.5t-27 7.5q-3 3 -15 9
q-11 4 -18.5 21.5t-7.5 34.5q0 13 6 21zM202 585q2 0 24 18.5t24 18.5q5 0 28 16q21 15 42 21q17 5 17 8t13 3t13 -3q0 -2 8 -6q9 -4 19 -20q11 -14 11 -35q0 -20 -11 -31q-12 -11 -13 -16q-2 -7 -17 -9q-9 -1 -21 -7q-6 -3 -30.5 -7t-30.5 -7q-7 -4 -18 -7.5t-19 -8
t-17 -13.5q-5 -6 -16 -15.5t-14 -12.5q-13 -11 -13 -13q0 -4 -15 -26t-18 -22t-6.5 -6.5t-7 -16.5t-4.5 -12q-10 -19 -20 -49t-10 -38q0 -10 -4 -12q-7 -2 -1 -6q4 -2 6 -29q5 -44 22.5 -66t55.5 -30q11 -2 14 -7q1 -3 49 -3q55 0 58 4q2 3 35 7q75 9 114 29q10 4 17 4
q11 0 11 -6q0 -5 -10 -10q-11 -5 -11 -7q0 -1 7 0q1 0 2.5 0.5t2.5 0.5q13 0 13 -15q0 -1 -0.5 -3.5t-0.5 -3.5q-3 -18 -24 -27q-37 -16 -53 -16q-5 0 -7 -4q-2 -7 -56 -13.5t-107 -6.5q-48 0 -74 8q-19 6 -46 23q-35 22 -50 54q-11 24 -11 27q0 4 -5 9t-11 35.5t-6 50.5
t5 52t9 35q3 3 8 14.5t10.5 24.5t6.5 15q8 16 13.5 26t9 14.5t11 14.5t15.5 21q13 21 37 44.5t32 33.5q12 14 15 14z" />
    <glyph glyph-name="H" unicode="H" horiz-adv-x="671" 
d="M462 136q0 20 7 48.5t7 41.5q0 20 5 22q3 2 9 35q18 102 37 139q5 8 5 14q0 5 4 5q2 0 5 10.5t6.5 26t5.5 22.5q7 22 10.5 37.5t8 34t9.5 39.5q3 12 13 19q20 11 20 -6q0 -5 4 -5q3 0 3 -8q0 -6 12 -18q11 -11 11 -25t-3 -16q-4 -2 -8 -15t-4 -23q0 -11 -5 -21
q-6 -12 -11 -32q-10 -37 -31 -92q-2 -10 -12 -36q-17 -47 -32 -160q-2 -17 -6 -17q-3 0 -3 -12q0 -35 -22 -45q-13 -7 -20 -5q-9 3 -17 17t-8 25zM158 614q1 53 8 59q5 4 12 4q4 1 12.5 -5.5t8.5 -10.5q0 -5 13 -11q10 -4 13.5 -13.5t3.5 -34.5q0 -14 -2.5 -41.5t-5.5 -49.5
t-4 -22q-3 0 -3 -11t-3 -11t-2 -7.5t-2 -7.5q-4 0 -2 -4q2 -3 -4 -28q-5 -23 -5 -27q0 -7 11 -12q14 -4 47 -4q20 0 23 2q4 2 12 -1q7 -3 19 1q2 1 10 1q17 0 41.5 -6t34.5 -13t13 -7q1 1 8 -1q6 -1 6 -9q0 -5 -4 -9.5t-10 -4.5q-7 0 -15 -5q-18 -9 -73 -15.5t-100 -10.5
t-45 -7q-2 -4 -6 -8q-5 -5 -21.5 -60t-21.5 -85q-2 -15 -8.5 -26t-9.5 -26q-2 -9 -8 -42t-8 -45q0 -11 -7 -20q-7 -7 -23 -7q-10 0 -10 4t-9 15q-10 11 -10 42q0 32 3 40q4 11 6 28q2 16 8.5 39.5t8.5 25.5q3 3 15 48.5t13 47.5q5 12 14.5 47t9.5 40q0 6 3 6t6.5 13t7.5 31
t5 20q24 80 26 194z" />
    <glyph glyph-name="I" unicode="I" horiz-adv-x="756" 
d="M165 31q0 2 -2 2t-2 -2q0 -1 2 -1t2 1zM187 54q0 2 -1 2q-2 0 -2 -2t2 -2q1 0 1 2zM232 61q0 2 -2 2t-2 -2t2 -2t2 2zM248 64q1 -1 3 -1q4 2 2 3q-1 1 -3 1t-2.5 -1t0.5 -2zM343 522q0 -3 1 -3q3 2 2 6q-1 1 -2 -1q-1 -1 -1 -2zM677 568q1 -1 4 -1l2 2l-3 1q-3 -1 -3 -2z
M470 589q38 2 109 2q75 0 80 -6q5 -5 13 -4h2q6 0 14.5 -9t13.5 -9q6 0 15.5 -8t10.5 -14q3 -15 -9 -15q-8 0 -11 -3q-5 -1 -11 -1q-3 0 -10.5 0.5t-12.5 0.5q-7 1 -30 1q-71 0 -185.5 -8.5t-118.5 -15.5q-1 -2 -10 -4q-6 -1 -7.5 -10t-8.5 -79q-9 -79 -15 -84
q-3 -1 -7 -17.5t-7.5 -34.5t-4.5 -21t-8.5 -38t-11.5 -40q-6 -8 -8 -27l-2 -19h13q13 0 14 3t31 8t52 6q4 0 12 0.5t18.5 1.5t16.5 1q9 1 20 1q9 0 10 -4q3 -6 14 -1q10 2 11 1t4 -3.5t9 -2.5q9 0 9 -7t14 -7q15 0 15 5t3.5 5t5.5 -4q1 -5 6 1q4 5 8 0q2 -6 6.5 -1.5
t7.5 4.5q4 0 8 3.5t10 2.5q8 -3 8 -13t-8.5 -13.5t-41.5 -8.5q-19 -3 -47 -10.5t-40 -10.5q-8 -2 -10 -6q-1 -3 -19 -3q-15 0 -31.5 -2.5t-39 -7t-31.5 -6.5q-40 -7 -53.5 -13t-18.5 -20q-4 -9 -19 -12q-15 -2 -27 7q-8 7 -17 7q-8 0 -29 -9q-14 -7 -19 -7q-3 0 -17 -8
t-27 -8t-26 8q-12 10 -12 16t-6 12q-5 5 -5 16q0 13 7 20q8 8 8 13t9.5 9t20.5 4q6 0 51 9t47 11l3 17q3 18 6.5 37t6.5 24q1 3 7.5 27.5t8.5 27.5q4 9 15 58.5t15 78.5q6 39 10 39q3 0 3 30v29l-10 1h-14q-22 0 -46 -4q-15 -3 -28 -3q-25 0 -35 12q-9 10 -9 42q0 28 4 36
t19 11q14 3 18 -3q8 -10 38 -10q10 0 15 1q7 1 15 1h10q11 0 26 3q34 6 64 8q36 2 55 7q13 3 27 3q20 0 20 -6t1 -6t9 6q8 8 41 9z" />
    <glyph glyph-name="J" unicode="J" horiz-adv-x="427" 
d="M318 699q6 8 12 8q9 0 24 -19q16 -22 19.5 -30t4.5 -28q0 -61 8 -69q3 -5 6 -39t5 -70.5t3 -40.5q4 -21 4 -85q0 -48 -3 -70q-9 -93 -16 -93q-3 0 -5 -12q-2 -11 -7 -16q-7 -7 -10 -27q-7 -36 -16 -47q-8 -11 -29 -13q-22 -2 -22 1q-2 7 -85 19q-11 2 -20 4t-12.5 3
t-9.5 1.5t-14.5 1t-24.5 1.5q-92 4 -97 14q-2 4 -2 12q0 19 6 28q2 4 21.5 8t35.5 4h4q4 0 12.5 -4t13.5 -1q3 3 31 3q51 0 73 -6q15 -4 37 -4q24 0 31 4q13 7 23 51q5 23 10 23q4 0 4 3l1 5q1 5 2.5 14.5t2.5 17.5q4 23 4 77q0 135 -13 170q-5 12 -10 72q-2 23 -5 32
q-9 33 -9 56q0 26 12 41z" />
    <glyph glyph-name="K" unicode="K" horiz-adv-x="452" 
d="M216 231q0 2 -2 2t-2 -2q0 -1 2 -1t2 1zM338 178q-2 0 -23 13t-24 13q-4 0 -4 3q0 4 -19.5 8.5t-38.5 4.5h-4q-25 -1 -55 -7t-38 -12q-14 -11 -12 -33q0 -9 -3 -9q-4 0 -8.5 -21t-4.5 -38v-6q0 -32 -18 -55q-10 -13 -23 -13q-11 0 -21 10q-8 7 -9.5 11.5t-1.5 23.5
q0 23 6 49q11 40 11 54q0 10 -6 22q-6 11 -6 26v8q1 25 25 31q10 2 14 11t6 32q2 28 7 33q14 17 23 89q6 52 6 55q0 9 3 13q5 5 10 109q0 12 11 23q9 11 12 11q4 0 16.5 -13t19.5 -25q8 -13 8 -25q0 -17 -10 -87q-8 -62 -8 -71t3 -9q4 0 21 13.5t17 16.5q0 4 5 4q7 0 27 20
t23 20q2 0 28 34q24 32 32 35q2 0 14.5 17.5t15.5 17.5t3 7q0 10 7 10q5 0 10 -4.5t5 -8.5q0 -8 5 -11q8 -6 8 -34q0 -9 -1 -12q-2 -9 -18 -25t-16 -19q0 -4 -17 -25.5t-20 -21.5q-4 0 -4 -5q0 -8 -57 -58q-14 -12 -34 -24.5t-27 -13.5q-9 -2 -9 -9q0 -6 -5.5 -12.5
t-9.5 -5.5q-3 2 -11 -8l-7 -9l15 3q12 3 29 3q30 0 61.5 -7t41.5 -17q7 -7 17 -11q15 -7 37 -25t22 -23q0 -2 13 -21q24 -36 24 -68q0 -1 -0.5 -3t-0.5 -3q-1 -9 -14 -10q-1 0 -2.5 -0.5t-2.5 -0.5q-8 0 -36 28q-29 29 -29 33t-4 4z" />
    <glyph glyph-name="L" unicode="L" horiz-adv-x="439" 
d="M101 169q0 -9 125.5 -17t126.5 -13q0 -3 -13 -6q-5 -1 1 -3q4 0 10 -1q2 0 8.5 -0.5t9.5 -0.5t9.5 0.5t8.5 0.5h8q17 0 17 -15q0 -7 -9 -7q-8 0 -47 -13l-39 -14h-98q-79 0 -127 3q-30 3 -44 16t-16 34q0 2 -0.5 6t-0.5 6q0 23 17 98q7 31 40 159q6 24 6 74v40l-1 85
l10 16q13 21 19 17q1 -1 1 -4q0 -4 9 -8q10 -4 21 -26q10 -23 10 -38q0 -12 -1 -21q-2 -38 -2 -57q0 -34 -9 -100q-7 -64 -13 -70q-4 -4 -4 -11q0 -6 -3 -6t-7 -18q-23 -100 -23 -106z" />
    <glyph glyph-name="M" unicode="M" horiz-adv-x="567" 
d="M133 406q0 1 -2 1t-2 -1q0 -2 2 -2t2 2zM352 478q1 0 16 22t16 22q3 0 10 14q9 16 18 25q10 10 10 16q0 3 8 9q9 6 21 2q25 -7 33.5 -15.5t9.5 -28.5q1 -19 8 -60t9 -43q3 -2 7.5 -34t10.5 -87t7 -64q4 -30 4 -34q0 -2 2 -42q1 -9 1 -22q0 -17 -5 -22.5t-19 -5.5
q-18 0 -27.5 11t-12.5 36q-12 100 -14 165q-1 20 -5.5 31t-5.5 29q-1 20 -5.5 50.5t-6.5 32.5q-1 1 -2 1q-7 0 -29 -19.5t-22 -26.5q0 -2 -9.5 -22.5t-9.5 -23.5q0 -4 -7.5 -19t-7.5 -18q0 -5 -5 -5q-6 0 -6 -7q0 -2 -6.5 -18t-6.5 -19q0 -4 -1 -4q-2 0 -6.5 -14.5
t-5.5 -15.5q-1 0 -9 -39t-10 -39q-3 0 -3 -27q0 -21 -1.5 -25.5t-10.5 -8.5q-8 -3 -14 -3q-20 0 -37 19q-7 9 -8.5 17.5t-2.5 49.5q-1 59 -8.5 136.5t-12.5 82.5q-3 3 -13 -6q-9 -9 -18 -11t-10 -6q-1 -2 -2 -14q-2 -17 -6 -18q-4 -2 -4 -8q0 -7 -5 -7q-7 0 1 -4q7 -5 -1 -6
q-5 -1 -6 2t-3 3q-3 0 -4 -69q0 -48 -6 -93q-8 -56 -8 -92v-13q1 -8 1 -18q0 -12 -6 -18q-7 -7 -20 -7q-16 0 -26 10q-13 13 -16 30t-3 81v73v43q0 208 -10 215q-2 2 -3.5 12t0.5 12q1 1 15 3q13 2 23 -7q10 -8 10 -17q0 -7 4 -7q3 0 3 -37q0 -38 5 -45q8 -13 9 -24
q2 -16 5 -16q2 0 6.5 14t4.5 21q0 6 4 6q2 0 9 21q4 14 13 27.5t13 28.5q1 2 5 15t6 20q6 18 9 21.5t11 3.5q11 0 19 -8q7 -7 13 -7q11 0 17.5 -29t6.5 -52q0 -15 5 -17q4 -2 0 -4q-3 -1 -4.5 -7t-0.5 -11.5t4 -5.5q4 0 4 -10q0 -12 5 -25q5 -14 1 -16t3 -5q5 -3 5 -9
q0 -3 6 -9q2 -2 4 -2q5 0 14 21.5t12 22.5q5 2 5 8t10 23t11 19q4 10 13.5 27.5t10.5 17.5z" />
    <glyph glyph-name="N" unicode="N" horiz-adv-x="435" 
d="M140 378q0 3 -2 3t-4 -4q-1 -3 2 -3q4 0 4 4zM244 581q24 44 59 44q7 0 18 -3q28 -7 46 -55q2 -6 8.5 -21.5t8.5 -21.5t5.5 -18t5.5 -24t3 -28q0 -3 1.5 -17.5t3 -33.5t3.5 -36q5 -60 5 -122q0 -49 -3 -67q-1 -3 -3 -34q-4 -53 -16 -61q-9 -6 -19 -6q-14 0 -22 9
q-11 11 -11 49q0 19 3 43q5 38 5 128q0 63 -2 87q-7 127 -20 134q-6 2 -6 12q0 12 -7 12q-11 0 -22 -21q-4 -5 -8 -6t-9 -8q-9 -11 -9 -6t-4 3q-2 -1 -2 -5v-8t-2 -4t-4 -10q-1 -8 -13 -26.5t-16 -18.5q-1 0 -16 -31q-5 -6 -16.5 -25.5t-11.5 -22.5q0 -2 -10 -16
q-9 -13 -9 -20q0 -15 -15 -42q-3 -6 -3 -14t-8.5 -33t-9.5 -31q-2 -15 -7 -20q-6 -6 -6 -36q0 -3 0.5 -11.5t0.5 -12.5q0 -26 -31 -26q-13 0 -24.5 6.5t-11.5 13.5q0 4 -6 10q-4 3 -3 21q2 20 4 188q1 55 1 120q0 60 -5 80q-4 19 -4 26q0 5 5 10q7 7 23 7q13 0 18 -5l8 -8
t9 -8q10 -9 10 -28q0 -13 -5 -36q-3 -17 1 -21q3 -4 0 -14q-3 -8 -3 -21q0 -11 2 -32.5t2 -27.5q0 -19 2 -23q3 -4 7 6l1 9q0 9 5 11q4 1 23 38q19 36 27 44q11 12 40 68q4 8 19.5 24t19.5 23z" />
    <glyph glyph-name="O" unicode="O" horiz-adv-x="541" 
d="M92 438q1 -1 3 -1q4 2 2 3q0 1 -2 1q-6 0 -3 -3zM102 446q0 2 -2 2t-2 -2t2 -2t2 2zM102 459q0 -3 1 -3q3 2 2 6q-1 1 -2 -1zM306 529q0 1 -45.5 7.5t-48.5 6.5q-8 3 -9 -5q-2 -9 -11 -14t-7 -9q6 -7 -10 -23q-6 -6 -13 -22q-4 -9 -16 -27q-8 -11 -12 -29q-2 -10 -10 -18
t-17 -34q-11 -28 -13 -28q-2 -2 -1 -4q1 -3 -4 -21q-6 -18 -6 -41q0 -27 8 -41q7 -12 7 -17q0 -13 35 -24q20 -6 37 -6q16 0 28 1q36 3 61 8q21 4 41 12.5t20 12.5t13 8q14 4 23 11q12 8 15 8q5 0 5 3q0 4 7 4q6 0 17 13q18 21 29 32q32 32 42 73q1 4 1 17q0 41 -10 61
q-8 14 -28 31.5t-37 24.5q-56 26 -82 26q-9 0 -9 3zM161 544q5 0 6 2t-1 4t-5 2q-2 0 -4 -2t-1 -4t5 -2zM313 570q2 1 1.5 4t-1.5 7t-2 4q-2 0 -2 -7q0 -8 4 -8zM203 624q29 27 48 27q6 0 15.5 -11.5t15.5 -26.5q4 -11 8.5 -14t24.5 -8q28 -7 28 -10q0 -4 12 -7
q49 -15 65 -29l16 -12q5 0 25.5 -24t23.5 -34q2 -8 6 -8t10.5 -14.5t8.5 -30.5q6 -41 6 -60q0 -16 -3 -29q-5 -24 -18 -49t-21 -25q-4 0 -4 -9q0 -10 -19 -27q-17 -16 -40.5 -35t-28.5 -21q-4 -1 -6 -5q-2 -3 -17 -5q-7 -1 -20 -8.5t-21 -7.5q-9 0 -9 -4q0 -7 -33.5 -14
t-66.5 -7h-14q-47 4 -58 15q-2 2 -11 2q-16 0 -45 27t-41 53q-10 20 -10 63q0 74 30 141q5 10 5 16q0 2 3 5t15 27q26 54 37 65q3 4 11 14q9 13 4 22q-9 16 -9 31q0 7 3 9q4 2 30 2h7q14 0 19.5 2.5t17.5 13.5z" />
    <glyph glyph-name="P" unicode="P" horiz-adv-x="500" 
d="M107 387q0 2 -8 2q-7 0 -7 -3q1 -2 4 -2t7 1t4 2zM88 410q0 1 -4 1q-3 0 -3 -4q1 -2 7 3zM89 416q1 -1 3 -1q4 2 2 3q0 1 -2 1q-6 0 -3 -3zM107 422q0 -3 1 -3q2 2 1 6q-1 -1 -2 -3zM136 439q0 11 -15 -2q-8 -7 -3 -7q2 0 7 1.5t6 1.5q5 0 5 6zM165 451q1 4 -1 5
q-5 1 -13 -7q-4 -4 0 -4h4q8 0 10 6zM186 457q2 -2 5 0q-2 1 -3 2q-4 0 -2 -2zM231 478q-3 -6 0 -7q5 -3 6 3q0 2 -1 4q-2 7 -5 0zM279 498q-2 -6 -1 -7q2 -3 5 4q2 4 0 7q-1 1 -3 -2q-1 -1 -1 -2zM332 511q5 0 6 5q-1 2 -3 3q-6 0 -6 -4t3 -4zM370 528q0 5 -6 5q-5 0 -5 -5
q0 -6 5 -6q6 0 6 6zM429 559q0 3 -7.5 5t-9.5 -1t-0.5 -4t9.5 -2q8 0 8 2zM199 665q0 2 -2 2q-1 0 -1 -2t1 -2q2 0 2 2zM257 704q4 12 26 9q15 -2 38 -4q66 -5 91 -17q12 -6 29.5 -26t21.5 -33q4 -11 7 -11t3 -22t-3 -22q-4 0 -4 -5q0 -4 -17.5 -21.5t-25.5 -22.5
q-8 -4 -10 -9t-9 -5q-1 0 -22 -8.5t-23 -8.5h-1q-4 0 -25 -8.5t-22 -8.5q-6 0 -11 -5q-4 -3 -56.5 -22t-68.5 -23q-8 -2 -11 -7t-8 -5t-17 -7q-9 -5 -11.5 -8.5t-3.5 -19.5q-2 -29 -7 -72q-3 -27 -3 -63q0 -7 0.5 -19t0.5 -17q1 -19 1 -47v-8q-3 -6 -10 -6q-13 0 -22 11
q-15 15 -18.5 31.5t-3.5 64.5q0 55 4 91q1 11 1 25q0 10 -3 16q-6 8 -8 26q-1 4 -1 11q0 10 9 20q8 8 10 17.5t4 43.5q4 65 19 65q9 0 26 -17q16 -16 16 -25q0 -6 -1 -11q0 -2 -1.5 -8t-2 -11t-0.5 -8q0 -5 2 -5q9 0 57 17t51 21q2 3 19 8q81 27 120 53q32 20 32 37
q0 5 -1 7q-4 12 -45.5 20t-95.5 8q-72 0 -120 -13q-43 -11 -43 -18q0 -3 -6 -3q-7 0 -21 -9q-21 -12 -34 -12q-5 0 -8 3q-5 8 -8 21q-1 4 -1 10q0 23 29 33q18 7 20 9t34.5 12t46.5 12q27 4 53 5q11 1 25 1q15 0 15 -6q0 -5 0.5 -5t1.5 4z" />
    <glyph glyph-name="Q" unicode="Q" horiz-adv-x="576" 
d="M519 143q0 1 -2 1t-2 -1q0 -2 2 -2t2 2zM186 165q0 2 -2 2t-2 -2t2 -2t2 2zM229 159q5 -5 7 4l-2 6q-2 1 -4 -0.5t-2.5 -4.5t1.5 -5zM211 165q0 5 -3 5q-4 0 -4 -5q0 -6 4 -6q3 0 3 6zM293 176q5 -2 7 0t0 7q-2 8 -7 -1q-3 -5 0 -6zM197 194q0 2 -2 2t-2 -2q0 -1 2 -1
t2 1zM156 194q0 2 -2 2t-2 -2q0 -1 2 -1t2 1zM326 196q0 8 -3 8q-4 0 -4 -8q0 -7 4 -7q3 0 3 7zM93 204q0 -3 1 -3q3 1 2 5q-1 1 -2 0.5t-1 -2.5zM339 207q2 4 -1 4q-3 -1 -5 -7q5 0 6 3zM382 217q0 2 -2 2t-2 -2t2 -2t2 2zM298 220q2 -2 5 0q-2 1 -3 2q-4 0 -2 -2zM363 224
q0 2 -2 2q-1 0 -1 -2t1 -2q2 0 2 2zM352 224q0 2 -2 2q-1 0 -1 -2t1 -2q2 0 2 2zM340 244q-5 3 -7 18l-2 14v-14q-1 -11 3 -21.5t8 -10.5q2 0 3 2.5t-0.5 6t-4.5 5.5zM419 270q2 0 1.5 2.5t-1.5 5.5t-2 3q-2 0 -2 -5q0 -6 4 -6zM308 278l2 -3q2 3 0 5q-1 1 -1.5 0.5
t-0.5 -2.5zM304 281q0 4 -4 4q-5 0 1 -6q1 -1 2 -1t1 3zM437 287q0 2 -1 2q-2 0 -2 -2t2 -2q1 0 1 2zM445 313q0 2 -2 2t-2 -2t2 -2t2 2zM441 328q0 2 -2 2t-2 -2t2 -2t2 2zM453 371q2 -2 4 -1q3 2 -1 4q-6 0 -3 -3zM67 374q0 -4 2 -4q3 0 2 4q0 2 -1 3t-2 -1zM123 454
q0 2 -2 2t-2 -2t2 -2t2 2zM161 523q1 -1 3 -1q4 2 2 3q-1 1 -3 1t-2.5 -1t0.5 -2zM396 300q0 6 13.5 29t13.5 28q0 7 6 17q6 9 6 26q0 18 -6 24t-6 12q0 10 -17 31t-35 33q-26 18 -29 21q-4 4 -16 8t-16 7q-13 9 -13 -4q0 -7 -5.5 -16t-9.5 -9q-2 0 -10.5 7t-17 14.5
t-9.5 8.5t-5 1q-9 0 -22 -6.5t-17 -13.5q-6 -11 -18 -19q-34 -21 -34 -29q0 -2 -15 -24.5t-15 -25.5q0 -4 -12 -26q-20 -37 -20 -84q0 -7 2 -25q4 -34 4 -36q0 -5 14 -19q13 -15 33 -19q20 -6 20 -8q0 -3 18 -3q19 0 19 4q0 3 9 3q17 0 55.5 13t38.5 18q0 4 -13.5 21.5
t-17.5 19.5q-5 2 -11 20t-6 31q0 14 7 21q7 8 17 3q19 -9 34.5 -23t17.5 -25q2 -12 11 -25q4 -6 6 -8.5t4 -3.5t3 0t3 4q6 8 9 6q3 0 3 4q0 5 5 5h7q16 0 17 12zM208 554q0 2 -2 2t-2 -2t2 -2t2 2zM238 585q3 1 -3 8q-1 0 -1 -4t4 -4zM235 601q1 -1 3 -1q4 2 2 3q-1 1 -3 1
t-2.5 -1t0.5 -2zM71 468q0 1 14.5 24t14.5 25q0 3 10 13q31 31 31 38q0 3 10.5 12t13.5 9q4 0 9 5t17 11q10 6 29 6q31 0 73 -13.5t52 -23.5q6 -6 29 -20q40 -24 69.5 -65t33.5 -76q2 -20 5 -20t3 -23t-3 -29q-9 -15 -10 -25q-3 -14 -20.5 -41t-24.5 -27q-3 0 -8 -7.5
t-3 -9.5q3 -3 19 -6.5t25 -3.5h3h3q9 0 20 -8t15 -19q8 -16 14 -22q7 -7 9 -17q2 -11 8 -11q4 0 10.5 -8t6.5 -13q0 -7 -8 -11.5t-18 -4.5q-13 0 -34 20q-37 34 -37 50q0 7 -26 9q-24 2 -46 6q-19 4 -26 -3q-9 -7 -14 -5q-6 2 -6 -3q0 -8 -47 -25q-13 -6 -13 -8t-23 -7
q-14 -3 -35 -3q-28 0 -53.5 4.5t-25.5 9.5q0 4 -7 4q-5 0 -9.5 3.5t-8.5 3.5q-6 0 -31 25.5t-32 39.5q-19 35 -19 100q0 21 6.5 54.5t12.5 44.5q3 6 3 11q0 3 9.5 15.5t9.5 14.5z" />
    <glyph glyph-name="R" unicode="R" horiz-adv-x="447" 
d="M125 417v9l1 -16q-1 1 -1 7zM202 169q0 1 -2 1t-2 -1q0 -2 2 -2t2 2zM188 175q1 -1 3 -1q4 2 2 3q0 1 -2 1q-6 0 -3 -3zM105 202q0 2 -1 2q-2 0 -2 -2t2 -2q1 0 1 2zM191 205q0 6 -4 6t-4 -3q0 -5 5 -6q2 1 3 3zM183 219q0 -3 1 -3q3 1 2 5q-1 1 -2 0.5t-1 -2.5zM176 231
q0 2 -2 2t-2 -2q0 -1 2 -1t2 1zM105 231q0 2 -1 2q-2 0 -2 -2q0 -1 2 -1q1 0 1 1zM165 233q0 10 -17 4q-8 -2 -2 -4q1 0 4 -1q15 -4 15 1zM118 238q1 -1 3 -1q4 2 2 3q-1 1 -3 1t-2.5 -1t0.5 -2zM194 263q0 -4 2 -4q3 0 2 4q0 2 -1 3t-2 -1zM113 269q0 5 -4 5t-4 -5
q0 -6 4 -6t4 6zM183 300q0 4 -5 4q-6 0 -6 -4t6 -4q5 0 5 4zM124 313q0 2 -2 2t-2 -2t2 -2t2 2zM106 323q2 -2 4 -1q3 2 -1 4q-6 0 -3 -3zM239 337q0 -4 1 -3q3 1 1 6q-1 -1 -2 -3zM113 387q0 6 -4 6t-4 -6t4 -6t4 6zM276 459q0 -3 1 -3q2 2 1 6q-1 -1 -2 -3zM309 598
q0 2 -2 2t-2 -2t2 -2t2 2zM139 633l18 6t16 5t13.5 4t13.5 4t12.5 3t14.5 2.5t14.5 2t17 1.5t19 0.5t22.5 0.5q53 -1 65 -8q20 -11 37 -33.5t17 -47.5q0 -16 -8 -31q-5 -8 -10 -20.5t-10.5 -21t-14.5 -17.5q-19 -19 -19 -22t-17.5 -24.5t-19.5 -21.5t-17 -21
q-18 -24 -23 -29q-8 -8 -8 -12q0 -5 -7 -8q-11 -7 -30 -41q-20 -32 -25 -37q-12 -12 -12 -46q0 -13 11 -17t11 -7q0 -4 22 -15.5t29 -11.5q8 0 10 -2q4 -4 8 -4q56 -7 62 -13q6 -3 13 -3q16 0 28 -12q16 -16 16 -27q0 -5 -25 -7q-23 -2 -25 -10q-1 -7 -19 -5q-16 2 -20 6
q-5 4 -11.5 3.5t-6.5 -4.5q0 -8 -2 0q-2 4 -7 4q-6 0 -35 10t-36 14q-8 6 -13 6t-34 31q-21 22 -26.5 30.5t-9.5 24.5t-4 30q0 17 5 41q3 16 10 31.5t12 15.5q3 0 5 6q7 20 36 54q68 83 78 93q22 22 22 26q0 6 17 23q18 18 24 36q6 16 2 17q-1 1 -4 2q-9 3 -28 3
q-46 0 -95 -11q-46 -11 -46 -13q0 -3 -7 -3t-10 -3q-1 -1 -23 -10q-19 -5 -19 -13q0 -7 -5 -7t2 -5q3 -3 5.5 -11.5t4 -20t2.5 -14.5q3 -9 -3 -9q-5 -1 -4 -4t4 -7.5t2 -5.5q-1 -2 0 -5.5t3 -3.5q3 0 5 13l1 5q1 -1 1 -11q0 -15 -5 -15q-3 1 -4.5 -0.5t-1.5 -5.5q0 -8 -3 -8
q-1 0 -1 -7q0 -38 7 -38q1 0 1 1l2 -10v-4v-8v-6l-2 4l-1 3q-3 10 -7 10t0 -7q8 -13 0 -21q-2 -2 0 -9.5t5 -7.5q2 0 4 12q1 5 1 -1q1 -6 1 -19q0 -33 -3 -33q-4 0 -4 -8t4 -3q2 3 3 -5q1 -7 1 -22q0 -30 -4 -30q-2 0 -2.5 3t0.5 5q2 5 -2 5q-6 0 -11 -6q-5 -5 2 -5
q3 0 7 -5t6 -4q3 2 3 0l-7 -10q-6 -6 -6 -11q0 -2 2.5 -12t2.5 -19q0 -24 6 -54q6 -27 6 -35q0 -9 -10 -9t-21.5 7t-16.5 15q-4 8 -11 36q-6 23 -6 54v22q2 46 4 50q2 2 2 139v80q0 56 -5 61q-6 6 -13 6q-14 0 -21 40q-1 10 0.5 13t9.5 10q10 8 28 17t23 9q4 0 4 4
q0 2 8 4.5t18.5 5.5t14.5 4z" />
    <glyph glyph-name="S" unicode="S" horiz-adv-x="462" 
d="M213 504q-2 0 -24 -9.5t-24 -9.5q-5 0 -25 -13t-29 -22q-10 -10 -16 -20q-5 -9 4 -16q1 -1 3 -2.5t3.5 -2.5t3 -2.5t3 -2.5t2.5 -2q6 -6 40 -17.5t65.5 -21.5t31.5 -12q0 -3 9 -3t9 -3t15.5 -8.5t35 -11.5t24.5 -9q18 -9 21 -9q4 0 4 -3q0 -4 7 -4q5 0 24 -22t28 -38
q8 -16 8 -26q0 -17 -23 -39q-21 -21 -55 -31q-65 -22 -116 -31q-36 -6 -74 -6h-42l-17 16q-18 16 -20 27q-2 9 -6 16q-3 3 -3 5q0 9 60 12q54 2 54 6q2 4 15 4q41 0 109 21q14 3 29 11t15 12v4.5t0.5 4t0 3t-2 2.5t-3.5 2.5t-6 3.5q-16 6 -17 6q-4 0 -14 5q-15 6 -48 13
q-36 7 -36 11q0 2 -16.5 6.5t-27.5 5.5q-4 0 -4 3q0 4 -15 6q-52 9 -95 50q-23 23 -29 31q-17 31 -17 66q0 22 12 35q28 37 89 57q14 4 14 7q0 4 12 6q5 1 30.5 12.5t31.5 11.5q7 0 9 3q2 4 24 11q22 5 22 9q0 3 7 3t30 9q28 11 42 15q18 5 25 5q8 0 12.5 -5t12.5 -20
q5 -8 5 -13q0 -4 5 -14q6 -11 2 -23l-4 -13h-24q-39 0 -111 -25q-40 -14 -49 -17q-12 -3 -12 -7q0 -3 -4 -3z" />
    <glyph glyph-name="T" unicode="T" horiz-adv-x="577" 
d="M158 489q5 0 -1 6q-1 1 -2 1t-1 -3q0 -4 4 -4zM546 563q-2 0 -6 -9.5t-6 -9.5q-4 0 -17 -9q-12 -9 -26 -9q-12 0 -26 -4q-12 -3 -66 -10.5t-65 -7.5q-13 0 -17.5 -7t-4.5 -29v-9q0 -33 -2 -33q-4 0 -4 -12q0 -57 -15 -203q-5 -59 -11 -59q-3 0 -5 -13q-4 -24 -22 -24
q-10 0 -16 12q-5 10 -9 14q-11 8 -11 36q0 3 0.5 9.5t0.5 10.5q5 58 10 62q2 1 8.5 74t8.5 120l2 37l-40 -3q-20 -2 -74 -2q-69 0 -78 4t-9 11q0 6 -3 9q-2 1 -8 28q-3 16 -3 23q0 6 5 11q7 8 17 5q24 -6 78 -6q25 0 157 6q23 1 92.5 6.5t98.5 5.5q27 0 27 -2t-3 -3
q2 -5 6 -5q40 0 40 -10q0 -5 -4 -5z" />
    <glyph glyph-name="U" unicode="U" horiz-adv-x="440" 
d="M289 196q0 -5 -7.5 -13.5t-7.5 -11.5q0 -5 -5 -7q-4 -2 -8 -11q-3 -8 -23.5 -25t-30.5 -19t-10 -5q0 -4 -13 -7.5t-25 -3.5q-13 0 -30.5 4t-17.5 7q0 4 -17 11q-27 13 -40 47q-7 16 -9 16q-5 0 -10 30.5t-5 59.5q1 36 6 83t9 48q4 2 4 16q0 21 15 95q3 16 3 44q0 24 9 33
t17 9l19 -10q15 -16 15 -50q0 -24 -7 -55q-37 -168 -37 -243q0 -30 6 -42q5 -8 16.5 -18.5t20.5 -14.5q8 -3 18 -3q21 0 38 11q4 2 10.5 7t8.5 6q8 5 16.5 13t8.5 11q0 4 10.5 16.5t13.5 12.5q6 0 13 16q3 8 17 27.5t17 30.5q7 15 9 16q5 2 5 9q0 6 6 14q6 9 11 41.5t5 57.5
q0 18 -3 23q-9 13 -9 46q0 7 2 15t2 14q0 3 -2.5 15t-2.5 22q0 6 5.5 15t10.5 13q4 2 7 2q10 0 23 -9.5t20 -22.5t14.5 -79.5t8.5 -130.5q0 -25 5 -30q3 -3 3 -17q0 -32 -7 -37q-4 -3 1 -7q6 -5 6 -61q0 -58 -4 -60t-6 -19q-2 -16 -7.5 -21t-18.5 -5q-14 0 -18 9t-8 9
q-3 0 -3 17t4 17q9 0 9 93q0 6 -0.5 16t-0.5 16q0 12 -8 7q-5 -3 -8 -10q-5 -11 -12 -22q-4 -5 -10 -16t-14 -18q-23 -19 -23 -37z" />
    <glyph glyph-name="V" unicode="V" horiz-adv-x="492" 
d="M291 198q0 6 -3 6q-4 0 -4 -6q0 -5 4 -5q3 0 3 5zM358 444q0 -3 1 -3q3 2 2 6q-1 1 -2 -1zM404 625q8 4 16 4q18 0 35 -31q10 -19 10 -28t-7 -26q-1 -4 -4 -11.5t-5 -13t-3 -8.5q-6 -30 -20 -58t-20 -48q-12 -40 -14 -44q-16 -36 -16 -37q0 -4 -5 -14q-3 -8 -9 -28.5
t-10 -28.5q-5 -12 -5 -19q0 -26 -24 -84q-2 -9 -7.5 -17.5t-7.5 -19.5q-12 -69 -22 -93q-5 -12 -20 -13h-8q-16 0 -22.5 9.5t-8.5 35.5q-3 36 -5.5 52.5t-8 37t-8.5 32.5q-6 28 -25 82q-3 14 -17 42q-2 5 -16 41q-6 19 -20 50q-10 22 -10 25q0 4 -5 9q-4 4 -27 48
q-19 36 -32 52q-21 21 -21 41q0 8 7 17t17 12q3 1 9 1q25 0 36 -24q5 -11 8 -11q6 0 35 -66q2 -4 5 -9.5t4.5 -9t3 -7.5t1.5 -9q0 -6 3 -7q7 -2 23 -47q7 -16 8 -17q3 -6 3 -11q0 -7 4 -12.5t5 -12.5q2 -11 10 -25q6 -10 12 -35q2 -9 15 -49t15 -52q2 -8 6.5 -11t8.5 2
q1 2 5 20q4 20 19 72t17 60t6 8q3 0 3 7q0 5 6 21q14 34 24 77q10 41 18 47q5 3 17 46q4 15 4 33v10v11q0 25 14 32z" />
    <glyph glyph-name="W" unicode="W" horiz-adv-x="595" 
d="M227 191q0 5 -3 5q-4 0 -4 -5q0 -6 4 -6q3 0 3 6zM364 209q0 2 -1 2q-2 0 -2 -2t2 -2q1 0 1 2zM350 254q0 2 -2 2t-2 -2t2 -2t2 2zM320 241q0 5 -4 13q-3 8 -3 2q0 -7 3 -13q1 -4 3 -4zM324 281q0 -3 1 -3q2 2 1 6q-1 -1 -2 -3zM309 291q0 2 -2 2t-2 -2t2 -2t2 2zM83 455
q0 3 -5 5q-3 1 -4 0q-2 -4 5 -8q4 -2 4 3zM383 481q0 -3 1 -3q3 2 2 6q-1 1 -2 -1zM250 291q0 2 11 25.5t11 26.5q0 4 6 18t9 17q11 12 24 74q2 13 6 17q7 14 11 27q10 28 22 28q6 0 16 -7q27 -18 27 -40v-8q-2 -23 -7 -28q-15 -17 -20 -44q-2 -16 -6 -16q-2 0 -1 -3v-5
q0 -6 -2 -40q-3 -24 -3 -37t3 -25q12 -60 25 -71q8 -6 8 -14q0 -5 7 -5t15 -2h1q8 0 25 17t24 32q18 43 27 83q6 29 9 32q4 8 6.5 30.5t4.5 29.5q3 17 3 33q0 45 -13 55q-7 6 -9 17q-1 3 -1 9q0 20 16 20q18 0 43 -25q21 -21 21 -77q-2 -93 -8 -96q-4 -4 -6 -25
q-1 -16 -9.5 -39t-10.5 -31q-10 -43 -28 -77q-12 -25 -43 -44q-15 -9 -33 -9q-38 0 -66 30q-38 39 -38 46q0 6 -8 25.5t-9 23.5q-2 8 -3 10.5t-3 1.5t-5 -8q-5 -9 -12 -8q-5 1 -5.5 0t-0.5 -3v-3q0 -5 -6.5 -19t-6.5 -16q0 -6 -30 -43q-6 -6 -9 -12q-5 -8 -20 -16t-30 -10
q-5 -1 -13 -1q-34 0 -73 38q-31 30 -43.5 61t-17.5 87q-1 12 -1 38q0 51 9 142q0 2 0.5 8.5t0.5 9.5q0 13 -2 23q-3 17 0 20t3 9t6 14q5 8 15 8q11 0 31 -15q22 -19 22 -35q0 -8 -3 -18q-10 -41 -16 -91q-9 -75 -9 -118q0 -41 8 -63q7 -19 14 -26q6 -6 6 -10q0 -7 8.5 -11.5
t19.5 -4.5q23 0 40 15t36 52q7 15 21 32q9 9 9 14z" />
    <glyph glyph-name="X" unicode="X" horiz-adv-x="511" 
d="M328 252q0 4 -1 4l-4 -7l1 -1q4 0 4 4zM306 285q0 4 -4 4t-4 -4t4 -4t4 4zM284 283q0 8 -5 8q-3 0 -3 -5q0 -8 4 -8t4 5zM202 302q0 2 -2 2t-2 -2t2 -2t2 2zM235 297q3 -1 3 1q0 5 -6 9q-3 1 -3 -1q0 -6 6 -9zM217 304q0 -3 1 -3q3 1 2 5q-1 1 -2 0.5t-1 -2.5zM217 322
q0 -3 1 -3q3 2 2 6q-1 1 -2 -1zM235 326q0 7 -6 7l-2 -2q3 -1 2 -6.5t2 -5.5q4 0 4 7zM202 331q0 -9 8 -1.5t-2 7.5q-6 0 -6 -6zM198 344q0 12 -6 12q-4 0 -1 -4q4 -3 0 -5q-5 -1 1 -8t6 5zM250 363q0 3 -5 3.5t-7 -2.5q-7 -7 2 -6q10 0 10 5zM198 374q0 -4 2 -4q3 0 2 4
q0 2 -1 3t-2 -1zM184 359q10 0 -1 12q-8 8 -10 2q0 -4 4 -9t7 -5zM195 381q0 4 -4 4t-4 -4q0 -3 4 -3t4 3zM169 370q0 1 1.5 5.5t1 7t-3.5 2.5q-5 0 -5 -9q0 -11 4 -10q2 0 2 4zM264 391q-1 10 -2 12q-2 2 -3 -1v-11q0 -13 3 -13q4 0 2 13zM154 398q0 9 -6 9t-2 -10
q1 -4 1 -5q0 -3 3 -3q4 0 4 9zM298 409q0 2 -1 2q-2 0 -2 -2t2 -2q1 0 1 2zM132 422q0 -3 1 -3q2 2 1 6q-1 -1 -2 -3zM284 437q5 0 -1 6q-2 1 -3 1q-7 0 1 -6zM114 434q-2 2 -2 4.5v3.5t-1.5 1.5t-6.5 0.5l-6 -1l2 -1q6 -2 6 -7t6 -5q4 0 4 0.5t-2 3.5zM126 438q8 2 2 10
q-5 8 -9 -2q-2 -6 0 -8t7 0zM290 453q3 -1 5 0l2 1q-1 1 -4 1q-3 -1 -3 -2zM112 461q0 6 -5 6t-5 -2l5 -5t5 1zM287 467q0 -3 1 -3q3 1 2 5q-1 1 -2 0.5t-1 -2.5zM87 471q3 -1 5 0q1 2 -3 3l-4 -2zM324 485q0 -3 1 -3q3 2 2 6q-1 1 -2 -1zM328 507q0 -3 1 -3q3 2 2 6
q-1 1 -2 -1zM313 509q0 2 -2 2q-1 0 -1 -2t1 -2q2 0 2 2zM71 511q-4 -6 -1 -6q4 0 7 5q2 2 0 3q-4 2 -6 -2zM316 533q2 4 0 7q-1 -4 -2 -5zM340 542q1 -1 3 -1q3 1 2 2l-2 1q-3 -1 -3 -2zM318 633q5 4 7 4t14 -4q15 -5 28 -19.5t13 -25.5q0 -16 -20 -71q-2 -5 -5.5 -13.5
t-4.5 -9.5q-9 -16 -30.5 -62t-21.5 -50t-3 -4q-1 0 -5.5 -7t-9.5 -17.5t-5 -17.5q0 -17 36 -36q18 -9 20 -14t6 -5q6 0 24 -10q10 -5 49 -21q28 -11 34 -17q7 -7 12 -7t16.5 -13.5t11.5 -19.5q0 -7 -5 -11t-9 0q-5 5 -5 0q0 -3 -12.5 -3.5t-14.5 2.5q0 4 -31 11
q-26 6 -50 17q-4 2 -9.5 4.5t-8.5 4t-4 1.5q-4 0 -19 10q-4 3 -18 10t-24 14t-14 12q-2 5 -6 5t-9.5 -5t-5.5 -9t-4 -4q-1 0 -1.5 -5t-1.5 -11t-2 -9q-4 -8 -12 -36.5t-12 -36.5q-7 -14 -9 -29q-2 -14 -6 -14q-2 0 -7 -17.5t-6 -26.5q-2 -23 -21 -23q-11 0 -22 11
q-17 17 -17 42q0 12 2 19q7 32 16.5 51.5t13.5 30.5q5 18 15 37t15.5 34.5t5.5 38.5q0 10 -15 26q-18 20 -18 24q0 3 -12 9q-12 5 -31 35q-21 31 -23 31q-3 1 -14.5 25t-11.5 29q0 4 -2 6q-2 1 -12.5 20.5t-12.5 20.5q-6 4 1 6q4 1 4 18q0 16 9 21q10 4 21 -1q11 -6 11 -8
q0 -3 7 -3q10 0 17 -14t20 -56q6 -17 8.5 -22.5t8.5 -13t12 -17.5q10 -18 23 -31q11 -11 11 -14t8 -10.5t16 -11.5q7 -4 8 3q18 47 23 50q3 3 12 24q15 36 23 53q14 30 14 34q0 3 3 3q4 0 11.5 26.5t7.5 42.5q0 15 5 20z" />
    <glyph glyph-name="Y" unicode="Y" horiz-adv-x="427" 
d="M276 256q0 3 -1 3q-3 0 -5 -4q-2 -3 2 -3t4 4zM302 297q0 7 -5 10q-3 3 -4 2.5t0 -5.5q3 -10 7 -10q2 0 2 3zM284 317q0 -7 1 -6q3 2 1 12q-1 -2 -2 -6zM301 347q-3 -5 -4 -5t-5 7l-4 6q-1 -1 1 -10q2 -13 4 -15q1 -1 4 2t5.5 8t2.5 8q0 6 -4 -1zM257 374q0 4 -1 4l-4 -7
l1 -1q4 0 4 4zM324 380q0 1 -2 1t-2 -1q0 -2 2 -2t2 2zM317 380l-1 5q-1 0 -7 -2q-9 -2 -6 -6q1 -3 6 -2q8 0 8 5zM250 383q0 2 -2 2t-2 -2t2 -2t2 2zM317 398q0 2 -2 2t-2 -2t2 -2t2 2zM312 405q3 -1 5 0l2 1q-1 1 -4 1q-3 -1 -3 -2zM306 413q0 2 -2 2t-2 -2t2 -2t2 2z
M322 432q-3 -7 0 -9q5 -3 5 5q1 2 0 4q-1 8 -5 0zM164 496q4 2 -4 9q-3 3 -3 -2q0 -7 7 -7zM354 502q5 2 1 8q-5 4 -5 -5q0 -5 4 -3zM335 507q0 -3 1 -3q3 2 2 6q-1 1 -2 -1zM343 515l2 -3q2 3 0 5q-1 1 -1.5 0.5t-0.5 -2.5zM376 618q0 4 -3.5 5.5t-5.5 -0.5q-8 -8 3 -8
q6 0 6 3zM120 585q2 0 16 -18.5t15 -18.5q3 0 3 -5t12 -15q7 -6 28.5 -33.5t34.5 -38.5q14 -14 14 -16q0 -6 8 -16q17 -25 17 -36v-1q-1 -1 -1 -2q-3 -5 6 -3q11 1 23 66q5 25 8 34t3 17q0 9 3 23t6.5 24t4.5 10q3 0 1 3v1q-1 1 -1 2q0 7 4.5 23.5t6.5 18.5q1 1 4.5 31.5
t4.5 31.5q1 3 10 3q13 0 31 -7q15 -7 18 -20q2 -15 -1 -21q0 -1 -4 -16.5t-7.5 -31t-4.5 -15.5q-3 0 -8 -25t-6 -25q-2 0 -2 -9q0 -14 -23 -117q-1 -13 -6 -29.5t-7 -16.5q-3 0 -5 -16q-2 -17 -22 -86q-4 -14 -14 -69q-7 -51 -11 -51q-3 0 -3 -9q0 -21 -16 -21q-21 0 -28 19
q-4 9 -4 29q0 40 26 158q7 29 7 38q0 8 -11 9q-13 2 -18 12q-6 12 -10 16q-2 3 -7 15.5t-8 15.5q-5 3 -5 7t-12.5 18.5t-16.5 14.5t-4 5q0 3 -20.5 27t-20.5 26q0 4 -11 11q-7 5 -26 30q-15 20 -30 35q-29 29 -29 62q0 7 1 10q1 8 3.5 10.5t9.5 2.5t16 -6t13 -7
q5 -1 15 -18.5t14 -18.5q2 -1 7.5 -11t8.5 -10z" />
    <glyph glyph-name="Z" unicode="Z" horiz-adv-x="513" 
d="M287 143q0 1 -2 1t-2 -1q0 -2 2 -2t2 2zM139 150q0 2 -2 2t-2 -2t2 -2t2 2zM246 161q0 2 -2 2t-2 -2t2 -2t2 2zM209 170q0 4 -6 4q-5 0 -5 -4q0 -3 5 -3q6 0 6 3zM120 198q0 2 -2 2t-2 -2t2 -2t2 2zM146 207q0 -3 1 -3q3 2 2 6q-1 1 -2 -1q-1 -1 -1 -2zM120 209q0 2 -2 2
t-2 -2t2 -2t2 2zM222 304q-3 -6 0 -7q5 -3 6 3q0 2 -1 4q-2 7 -5 0zM321 375q1 -1 3 -1q4 2 2 3q0 1 -2 1q-6 0 -3 -3zM287 391q0 2 -2 2t-2 -2t2 -2t2 2zM38 637q5 10 9 12.5t14 2.5q14 0 18 -9q4 -8 33 -18q27 -10 43 -10q11 0 16 -5t5 1q0 3 20 3q39 0 41 -4q2 -2 9 1
q8 4 78 4q71 0 74 4q3 5 9 0t26 0q12 3 16 3t20 -8q17 -9 17 -16q0 -8 -6 -29t-9 -21t-3 -6q0 -7 -13 -27q-5 -8 -12.5 -21t-13 -21t-15.5 -18q-16 -16 -16 -19q0 -4 -12.5 -18t-20.5 -18t-7.5 -7.5t8.5 -3.5t17 -9q10 -10 15 -10q6 0 16 -4t10 -6q0 -3 -19 -11.5t-29 -9.5
q-21 -3 -32 -3q-31 -2 -42.5 -6t-25.5 -16q-13 -12 -64 -67q-37 -40 -43 -40q-11 0 -6 -12q5 -11 39 -15q21 -4 90 -8q35 -2 36 -6q3 -5 3 0q0 4 13 4t13 -3q0 -4 39 -4h40l12 -13q13 -13 13 -20q0 -8 -4.5 -17t-8.5 -9q-3 0 -9 -8q-4 -7 -16 -7l-34 2q-16 1 -52.5 3.5
t-94.5 5.5q-75 6 -82 8q-8 2 -19 2q-10 0 -16 -1q-27 -3 -39 -3q-15 0 -21 8q-4 5 -15 12q-7 4 -7 12q0 9 1 17q1 11 2 16.5t2 7.5t4 6l6 8q6 11 19 16q13 6 17 13q4 8 9 8t10 6q7 9 21 20q16 12 16 15t15 16q13 13 13 17t-10 4h-4h-7q-20 0 -31 21q-7 13 -7 20q0 3 2 11
q3 14 9 24q3 5 8.5 6.5t25.5 1.5h38l67 -1l25 22q26 22 26 26t9 9q8 5 22 23t17 21q28 32 32 52l2 11l-119 -1h-40q-89 0 -125 4.5t-65 17.5q-13 5 -16 9t-4 17q-1 5 -1 12q0 10 6 23z" />
    <glyph glyph-name="a" unicode="a" horiz-adv-x="349" 
d="M189 335q0 2 -2 2q-1 0 -1 -2t1 -2q2 0 2 2zM230 317q0 7 -4.5 23t-7.5 16q-7 0 -7 -12q0 -7 -3 -7t-7 -12l-4 -8v1q0 4 -3 4t-3 -22q0 -16 1 -19t8 -3q41 0 41 14q0 2 -3 5q-4 4 -2 10q1 3 0.5 3.5t-2.5 -0.5q-3 3 -4 7zM178 468l5 18l20 -2q31 -2 47 -44q7 -18 10 -21
q3 -2 16 -48t15 -63q5 -31 25 -39q6 -1 6 -8q0 -8 -9 -20q-10 -11 -10 -30v-10q1 -26 5.5 -56t7.5 -30t3 -11t-4 -11t-4 -11q0 -13 -10 -13q-5 0 -13 3q-20 8 -28.5 29t-12.5 69q-4 49 -10 49q-3 0 -3 -3q0 -4 -42 -13q-37 -7 -48 -16.5t-33 -52.5q-7 -15 -11 -15
q-3 0 -3 -7q0 -8 -10 -19.5t-17 -11.5q-6 0 -22 12q-13 11 -16 26q0 1 -0.5 4.5t-0.5 5.5q0 32 16 48q8 6 14 19q5 11 10 11q3 0 3 4q0 3 8 15q8 11 6 19v2q-1 2 -1 3q0 8 5 16t9 8q5 0 10.5 5.5t10.5 15.5t8.5 19t7 20.5t5.5 15.5q5 13 5 21q0 6 8 10q12 7 12 38q0 12 2 16
q3 6 3 9q1 2 5 24z" />
    <glyph glyph-name="b" unicode="b" horiz-adv-x="458" 
d="M159 220l-30 10q-6 0 -6 -36q0 -20 3 -32q6 -24 6 -29q0 -6 3 -8.5t7 -0.5q2 1 64 3q130 3 130 33q0 7 -36 20t-84 23q-10 2 -10 5t-10 3t-37 9zM221 335q0 2 -2 2t-2 -2t2 -2t2 2zM313 343q0 1 -1 1q-2 0 -2 -1q0 -2 2 -2q1 0 1 2zM317 417q0 5 -28 5q-27 0 -27 -3
q0 -4 -25 -4q-21 0 -59 -6q-60 -9 -60 -14q0 -2 1 -4q2 -8 9 -13q1 -1 6 -9.5t9.5 -15.5t7.5 -7q10 0 13.5 -2t2.5 -7q-1 -4 1 -4.5t10 1.5q10 3 16 3q9 -1 9 1q1 1 -4 2q-10 3 -11 12q0 4 5 4q6 0 6 4q0 2 3 1q2 -2 14 8q11 9 23 11q25 4 32 11q5 5 23 9q9 2 10 4q-9 0 3 4
q10 3 10 9zM210 487q39 3 89 3h25q47 -1 65 -7.5t30 -24.5q12 -20 12 -36q0 -26 -28 -41q-19 -10 -19 -14q0 -3 -16 -10q-9 -3 -25.5 -10t-45.5 -18q-42 -17 -43 -18l-14 -7q-14 -6 -27 -13t-13 -8q0 -3 17.5 -9.5t34.5 -9.5q13 -2 13 -4q0 -6 35 -15q30 -7 59.5 -32.5
t37.5 -50.5q1 -6 6 -6q4 0 4 -8q0 -20 -14 -40q-12 -19 -28 -28t-50 -16q-24 -5 -60 -5q-41 0 -72 7.5t-36 19.5q-3 7 -13.5 14t-18.5 7q-14 0 -28 14.5t-17 32.5t-3 59q0 102 8 113q2 3 2 23q0 21 3 24q9 10 -11 12q-3 1 -6 1q-14 1 -20 12q-6 12 -8 12q-3 2 -3 16
q0 15 3 15q2 0 9 10q7 12 19 13q13 2 13 6q0 6 134 17z" />
    <glyph glyph-name="c" unicode="c" horiz-adv-x="377" 
d="M106 307q1 0 26 28t26 28q3 0 19 11.5t24 19.5q5 5 12.5 5t7.5 -5t5 -5q7 0 19 -12q13 -13 13 -29q0 -17 -5 -22q-5 -7 -18.5 -15t-21.5 -8h-2h-1q-7 0 -37 -30q-25 -25 -30.5 -32.5t-20.5 -36.5q-13 -23 -21 -32q-10 -12 -10 -18q0 -4 -0.5 -11t-0.5 -10q0 -11 4 -20
q5 -16 30 -16q6 0 26 2q6 0 13.5 1t12.5 1.5t7 0.5q5 0 11 3q4 2 29 4q21 1 52 9t31 12q0 3 10 3q9 0 9 -3t12 -6q12 -4 13 -12q2 -8 -4 -8q-3 0 -15.5 -9.5t-16.5 -9.5q-8 0 -11 -6q-5 -11 -63.5 -29t-105.5 -18q-19 0 -37 5q-10 3 -28 19.5t-18 23.5q0 4 -7 13
q-14 19 -14 48q0 7 2 25q1 11 17 56q1 4 9.5 17.5t9.5 16.5q5 9 20.5 30t17.5 21z" />
    <glyph glyph-name="d" unicode="d" horiz-adv-x="381" 
d="M207 334q-3 7 -79 7q-19 0 -21 -2q-3 -6 -3 -20q0 -9 1 -12t1 -10q0 -15 -9 -56q-11 -46 -11 -58v-3l1 -3q3 -7 7 -3t12.5 4t8.5 -4t7.5 -3.5t16.5 5.5q10 5 21 5q12 0 41 9t33 10q16 2 42 28q24 24 24 42q0 19 -29 30q-13 6 -14 9t-25 13t-25 12zM72 410q14 3 39 3
q76 0 100 -12q10 -5 15 -5t18 -7.5t20 -14.5t14 -7t7 -4t5 -4t27.5 -23.5t31.5 -37.5q8 -15 8 -48q0 -34 -8 -49q-11 -20 -36.5 -43t-46.5 -31q-18 -7 -18 -9q0 -3 -11 -3t-35 -6q-22 -5 -64 -5q-41 0 -41 -5q0 -8 -9.5 -16.5t-18.5 -8.5q-11 0 -17.5 6.5t-14.5 26.5
q-9 20 -9 67q0 83 13 124q3 11 -1 16q-4 6 -9 32q-3 15 -3 22q0 8 4 16q10 18 40 26z" />
    <glyph glyph-name="e" unicode="e" horiz-adv-x="364" 
d="M284 420q9 3 16 3q12 0 26 -12q11 -11 11 -16q0 -7 -11 -16q-15 -13 -47 -25.5t-58 -14.5q-7 -1 -23 -6t-16 -7t-15 -12t-18 -10t-11 -17t-8 -24q0 -9 9 -9q7 0 24 3q26 4 28 2q1 -3 9 -3q13 0 13 -23q0 -20 -11 -20h-2q-6 2 -18 -7q-14 -10 -37 -17q-32 -11 -38.5 -16
t-6.5 -19q0 -15 6 -21q4 -4 26 -4q18 0 35 3q4 0 8.5 1t7.5 1.5t4 0.5t5 1t9.5 2t10.5 1q5 1 20 1q35 0 35 -11q0 -7 9 -5q10 3 9 -2q-1 -4 -8 -13q-8 -11 -32 -23t-43 -20l-20 -7q0 -3 -8 -3q-12 0 -30 -3q-14 -3 -23 -3q-14 0 -31 4q-5 1 -20 14t-24 25q-5 8 -10.5 30
t-5.5 37t6 45t9 32q2 2 11.5 33t12.5 34q6 6 8 16q3 13 12 32.5t15 26.5q2 3 5.5 7.5t5.5 6.5t5.5 4.5t9 3.5t13.5 2q11 1 43 7t54 6q35 0 44 4z" />
    <glyph glyph-name="f" unicode="f" horiz-adv-x="379" 
d="M55 274q0 4 -4 4q-3 -1 3 -8q1 0 1 4zM100 429q2 0 42.5 17t41.5 17q4 0 9 7q4 5 27 13q4 1 14 4.5t19 6.5l15 5q20 7 37 7q20 0 33 -10q14 -10 14 -19q0 -7 -6 -17q-9 -16 -25 -20q-12 -3 -21.5 -7t-18.5 -7q-13 -4 -22 -11t-22 -11q-74 -32 -74 -37q0 -1 -12 -7
q-16 -7 -22 -15.5t-8 -25.5q-2 -20 -6 -22q-10 -3 -1 -5q5 -2 12 -1h7q20 0 38 -10t18 -22q0 -8 -9.5 -18t-20.5 -13q-32 -8 -36 -19q-2 -5 -6 -5t-15 -11q-10 -10 -10 -32q0 -54 -22 -54q-10 0 -20 9q-21 16 -21 73q0 48 15 129q4 22 4 47q0 26 5 31q39 33 47 33z" />
    <glyph glyph-name="g" unicode="g" horiz-adv-x="448" 
d="M282 220q0 2 -2 2t-2 -2q0 -1 2 -1t2 1zM172 269q1 5 30 5q5 0 27.5 -0.5t41.5 -0.5q95 -1 103 -8q6 -6 11 -6q4 0 4 -4q0 -9 26 -35q6 -10 6 -23q0 -11 -5 -15q-6 -4 -19.5 -35.5t-15.5 -33.5q-7 -11 -7 -17q0 -3 -3.5 -9.5t-8 -11t-5.5 -3.5q-2 2 -9 -2q-2 -1 -6 -1
q-8 0 -16.5 7t-9.5 17q-3 14 -3 26q0 26 13 52q11 22 9 28q-1 5 -7 5t-6 -5q0 -8 -2 0q-1 4 -22 4q-16 0 -17 -3q0 -3 -46 -5l-45 -3l-8 17q-11 22 -11 50q0 8 1 10zM139 323q1 -1 3 -1q4 2 2 3q-1 1 -3 1t-2.5 -1t0.5 -2zM45 259q3 0 11 17t11 17q4 0 6 10q3 17 52 66
q11 13 21 18q10 6 28 24q12 12 35.5 27t38.5 15h4q16 -3 35 -21t19 -37q0 -3 -2 -11q-10 -28 -21 -28q-4 0 -20 -9l-17 -9l-5 9l-4 9l-17 -10q-25 -13 -70 -61q-16 -16 -33 -48t-17 -43t-4 -16q-2 -4 -2 -6q0 -10 24 -17q16 -5 16 -8t27 -3q46 0 93 -9q40 -4 40 -20
q0 -2 -4 -12q-5 -9 -12 -11.5t-37 -7.5t-67 -5q-48 0 -69 7q-29 11 -59 49q-16 20 -16 61q0 18 5.5 40.5t9.5 22.5z" />
    <glyph glyph-name="h" unicode="h" horiz-adv-x="374" 
d="M325 104q-1 0 -4.5 -1t-6 -1.5t-5.5 -1t-4.5 0.5t-1.5 4q0 6 -5 6q-13 0 -16 41q-2 25 -4 29q-1 2 -13 2q-19 0 -34 -2q-8 -1 -26 -2.5t-32.5 -3t-23.5 -1.5q-32 -2 -39 -5.5t-7 -18.5q0 -13 -11 -49.5t-23 -44.5q-7 -4 -10 -3.5t-10 7.5q-18 15 -18 47q0 23 5 51
q10 63 10 145q0 8 -0.5 22t-0.5 20q0 33 18 33q7 0 23.5 -12t16.5 -17q0 -4 8 -12q7 -7 7 -42q0 -34 3 -37q3 -2 139 -7l21 -1l1 63q0 56 4 68q3 4 9 4q12 0 30 -15q26 -23 26 -56q0 -11 -1 -18q0 -6 -4 -57q-7 -135 -21 -135z" />
    <glyph glyph-name="i" unicode="i" horiz-adv-x="127" 
d="M30 364q3 20 17 20q7 0 15 -5q31 -21 37 -41.5t7 -101.5q0 -113 -4 -122q-3 -7 -12 -7q-24 0 -32 23q-15 33 -15 45q0 6 -3 6q-2 0 -6.5 67t-4.5 101q0 4 1 9v6z" />
    <glyph glyph-name="j" unicode="j" horiz-adv-x="340" 
d="M220 431q7 4 10.5 2.5t14.5 -10.5q25 -21 29 -48q2 -16 6 -22q9 -21 15 -61q2 -18 7 -23q5 -7 10 -36t5 -54v-5q-2 -53 -14 -58q-4 -1 -4 -8q0 -5 -10 -16t-15 -11q-2 0 -12 -8q-8 -7 -34 -7h-33q-57 0 -59 4t-32 6q-26 2 -39 7.5t-20 18.5t-10 13t-3 11q0 10 9 13
q9 2 97 4q109 1 109 13q0 3 5 3q7 0 7 26q0 42 -11 49q-5 2 -7 19q-8 42 -22 84q-11 30 -11 64q0 11 1 15q2 9 11 15z" />
    <glyph glyph-name="k" unicode="k" horiz-adv-x="377" 
d="M35 353q7 6 16 6t22 -8q25 -15 29 -52q2 -21 5 -21t34 33q25 27 35 35t23 11q5 2 8 1.5t4.5 -2.5t3.5 -7q5 -11 8 -12q2 -1 2 -7q0 -18 -15 -42q-12 -21 -17 -21q-4 0 -4 -6q0 -5 -3 -5q-4 0 -10 -9.5t-4 -14.5q1 -6 20 -3h2q13 0 36.5 -6.5t28.5 -11.5q1 -1 25 -18
q60 -40 66 -126q1 -15 -0.5 -19t-8.5 -8q-11 -7 -18 -7q-8 0 -15.5 9t-7.5 18q0 10 -4 10t-4 12q0 14 -13 37.5t-21 23.5h-1h-1q-3 0 -17.5 6.5t-16.5 6.5q-6 0 -8 4q-1 4 -26 4q-24 0 -25 -4q-2 -4 -23 -9q-21 -4 -35 -18q-10 -10 -12 -19.5t-4 -54.5q0 -11 -8 -17t-19 -6
q-18 0 -23 14q-4 13 -7 14q-3 3 -3 70q0 90 4 91t4 29q0 35 -5 35q-4 0 -1 3q1 0 2 1q5 4 1 7q-6 4 -6 25q-1 23 7 28z" />
    <glyph glyph-name="l" unicode="l" horiz-adv-x="286" 
d="M45 328q4 5 13 5q12 0 26 -8t14 -14q0 -4 9 -17t8 -25q-5 -29 -8 -63q0 -10 -3 -24.5t-4 -23.5v-8q0 -13 10 -13q6 0 18 3q32 6 64 6q27 0 42 -4q25 -6 25 -13q0 -4 -8 -17q-10 -15 -27 -20q-11 -2 -20 -7q-4 -4 -13 -4t-37 -7q-55 -13 -78 -13q-29 0 -32 13q-2 7 -5 7
q-2 0 -8 18q-2 5 -2 20q0 26 10 79q3 18 3 46q0 34 -4 46q-2 10 -2 15q0 14 9 23z" />
    <glyph glyph-name="m" unicode="m" horiz-adv-x="464" 
d="M136 201q-9 6 -9 -6q0 -9 6 -11t1 -9q-4 -5 -3 -5t3 1q6 2 6 18q0 9 -4 12zM179 215l2 -3q2 3 0 5q-1 1 -1.5 0.5t-0.5 -2.5zM137 212q-3 8 -8 6q-2 0 -2 -2q0 -4 6 -6q3 -1 4 -0.5t0 2.5zM160 231q0 2 -1 2q-2 0 -2 -2q0 -1 2 -1q1 0 1 1zM212 286q0 -7 5.5 -12t5.5 -11
q0 -8 4 -8q5 0 23 22q21 27 33 32q10 5 14 5q3 0 16 -5q25 -9 40 -47q3 -6 7.5 -12t7.5 -15q8 -17 11 -21q9 -9 10 -17q3 -12 14 -28t18 -20q6 -2 11.5 -15t5.5 -22q0 -3 -1 -4q-2 -3 -21 -5q-5 -1 -12 -1q-10 0 -28 13q-17 12 -30.5 32.5t-16.5 38.5q-2 14 -6 14q-3 0 -3 5
q0 4 -8 12q-5 5 -7 5t-9 -7q-11 -11 -12 -16q-2 -7 -24 -29t-22 -27t-12 -19q-10 -13 -24 -12q-10 1 -18.5 9t-8.5 16q0 3 -4.5 12.5t-3.5 14.5q2 7 -3 10q-7 3 -1 7q4 2 6 13q1 8 0.5 8.5t-5.5 -2.5q-7 -4 -7 -7t-13 -20q-4 -6 -16 -29t-17 -28q-2 -2 -2 -8t-8 -18
q-7 -12 -21 -12q-19 1 -26 5t-15 19l-9 18l6 43q4 31 4 71v27v27q0 30 4 37q5 8 11 8q7 0 19 -9t17 -18q3 -6 6.5 -10t5.5 -8.5t2 -13.5q0 -15 4 -15t13 13l9 13q4 0 6 9q4 12 13 24t14 12q10 0 22.5 -7.5t15.5 -15.5q6 -11 7 -11q3 0 3 -10z" />
    <glyph glyph-name="n" unicode="n" horiz-adv-x="429" 
d="M154 261q0 -4 -7 -14t-7 -15q0 -7 -6 -15q-14 -20 -27 -119q-2 -16 -4.5 -20t-12.5 -9q-15 -7 -25 -1q-7 4 -14.5 14.5t-10.5 13.5l-9 6l5 44q5 43 7 43q9 0 9 91q0 47 3 56q3 5 11 5q11 0 21 -8q9 -6 15 -6q10 0 18 25q2 5 4 12.5t4 12t2 6.5q3 6 17 6t36 -22
q23 -25 26 -30q38 -64 49 -78q11 -13 16 -24q15 -32 23 -36q5 -3 5 -7q0 -6 8.5 -21t11.5 -15q4 0 12 -8l8 -8l2 24q0 2 0.5 9t0.5 11q0 13 -2 29q-3 21 -3 89q0 44 1.5 56t7.5 12q4 0 10 -3q14 -5 31 -36q10 -18 14 -88q3 -59 3 -78q0 -75 -3.5 -97t-15.5 -24q-4 -1 -11 -1
q-19 0 -40 20q-22 21 -48.5 55t-26.5 41q0 3 -10 9q-7 5 -12.5 14.5t-4.5 14.5q0 4 -10 17q-7 8 -15 24q-5 10 -8 10q-2 0 -14 17t-18 17q-2 0 -3 -1q-5 -3 -5 -9q0 -5 -4 -5t-4 -6z" />
    <glyph glyph-name="o" unicode="o" horiz-adv-x="284" 
d="M177 293q-8 9 -12.5 7t-2.5 -14v-6q0 -20 -17 -20q-3 0 -5 1q-8 2 -24 -15q-29 -32 -29 -73q0 -23 12 -31q7 -4 21 -4h12q76 8 76 86q0 21 -6.5 35t-24.5 34zM82 364q13 5 28 5q24 0 54 -12q24 -9 43 -32q17 -21 20 -21q7 0 24 -51q8 -24 8 -37q0 -15 -2 -27
q-4 -31 -16 -50q-9 -12 -12 -16.5t-10 -10t-18 -11.5q-35 -21 -78 -21q-29 0 -44 14q-8 6 -11 6q-11 0 -24.5 30t-13.5 55q0 16 9 44.5t16 36.5q8 10 8 14t5 6q4 1 -4 13q-8 13 -10 27q0 2 -0.5 4t-0.5 4q0 20 29 30z" />
    <glyph glyph-name="p" unicode="p" horiz-adv-x="317" 
d="M155 384q-27 6 -43 6h-8l-13 -1l2 -23q3 -29 11 -29q6 0 13 4q11 5 38 5h3q18 0 33.5 5.5t15.5 11.5q0 3 -6 5t-13 2q-6 0 -11 5q-3 3 -22 9zM65 248q0 4 -7 26.5t-7 28.5q0 13 -6.5 45t-9.5 34q-4 2 -4 25q0 15 2 20.5t11 12.5q15 13 20 13q1 0 4.5 0.5t5.5 0.5
q40 0 77 -13q3 -1 11.5 -3t15 -4.5t9.5 -5.5q10 -6 37 -14q29 -8 42 -18t20 -32q6 -15 6 -33q0 -14 -5 -14t-17 -7q-32 -17 -91 -17h-9q-42 0 -50 4q-5 3 -5 1q0 -1 1 -6q6 -33 15 -58q6 -18 6 -23q0 -7 3 -7q4 0 13 -39.5t9 -55.5v-3l-1 -2q-2 -5 -17 -13q-14 -6 -28 2
q-17 10 -18 26q-2 14 -8.5 26.5t-8.5 23.5q-16 75 -16 79z" />
    <glyph glyph-name="q" unicode="q" horiz-adv-x="386" 
d="M266 206q0 4 7.5 7t7.5 6t11 14q12 12 12 23q0 23 -45 34q-21 6 -42 6q-20 0 -26 -6q-5 -5 -13 -1q-17 9 -28 -2q-10 -10 -23 0q-7 6 -12 6q-9 0 -24 -41q-6 -15 -6 -28q0 -21 15.5 -33.5t42.5 -12.5q11 0 13 1t1 7q-3 9 -2 21q0 5 1.5 6t4 0t6.5 0q5 3 -3 6l-4 2
q3 1 5 1q8 0 8 4q0 5 6 5q5 0 14.5 -4t16.5 -8t8 -4q5 0 12 -9q9 -9 22 -9q14 0 14 9zM110 396q4 0 28 17t26 17q6 0 21 -17t22 -31q10 -20 18 -21q63 -13 84 -31q7 -7 14 -9t22 -30t15 -42q0 -19 -15 -49t-25 -30q-5 0 -12 -7q-5 -6 -4.5 -8.5t10.5 -10.5q40 -33 40 -44
q0 -5 -10 -7q-7 0 -11 -4q0 -1 -4 -1q-10 0 -27.5 5.5t-21.5 10.5q-7 7 -12 7q-4 0 -16 6q-10 4 -14 4q-3 0 -26 -5q-27 -6 -65 -6q-34 0 -55 10q-45 22 -45 39q0 9 -3 10q-4 2 -9 23q-6 20 -6 45q0 43 13 71q12 23 14 24q4 3 13 17.5t11 16.5q1 1 7 9.5t12.5 14.5t10.5 6z
" />
    <glyph glyph-name="r" unicode="r" horiz-adv-x="352" 
d="M86 455q12 2 26 2q32 0 71 -5.5t53 -12.5q23 -12 32 -22t17 -33q10 -28 10 -39q0 -12 -17.5 -39.5t-33.5 -40.5q-6 -4 -13 -11q-10 -10 -32 -21q-4 -2 -15 -11t-19 -12q-11 -3 -11 -10q0 -4 -0.5 -8t-0.5 -5q0 -5 17 -11q13 -4 26 -4q2 0 30 2q32 4 53 4q19 0 22 -7
q2 -8 12 -10q12 -2 12 -6t-8.5 -11t-13.5 -7q-6 0 -18 -7q-13 -8 -47 -17q-24 -7 -54 -7h-17q-35 0 -45 5q-20 11 -20 -7q0 -11 -4 -20.5t-8 -9.5q-21 0 -28 36q-2 9 -2 39q0 61 7 86q2 7 6.5 37t9.5 40q7 10 15 10q16 0 30 -29q9 -19 17 -19q5 0 18 8q32 20 32 26
q0 5 20 23q21 18 21 27q0 10 -18 17q-17 8 -66 8q-47 0 -63 -9q-13 -8 -19 -14q-4 -5 -10.5 1t-8.5 6q-4 0 -11.5 16t-7.5 25q0 16 9 26q7 10 14 13t31 8z" />
    <glyph glyph-name="s" unicode="s" horiz-adv-x="326" 
d="M193 237q3 0 23 -11t22 -11q4 0 17 -9t13 -12q0 -5 11 -14q22 -19 22 -41q0 -14 -15 -35t-30 -26q-15 -6 -59 -6q-17 0 -33 2q-25 5 -44 6q-56 6 -70 26q-8 14 -5 17q2 2 2 9.5t3 8.5q4 2 21 2q50 0 73 -7q12 -3 28 -3q19 0 26 4q8 5 18 14l12 11l-8 8q-6 6 -22.5 14.5
t-21.5 8.5q-4 0 -5 3q-1 2 -19.5 8.5t-23.5 6.5t-18 9q-13 10 -27 13q-13 3 -33 23l-20 20l2 29q1 21 3.5 27t13.5 16q14 13 47 22.5t69 9.5h14q32 -1 47 -11q22 -15 22 -31q0 -4 -2 -8q-6 -12 -71 -13q-68 -2 -77 -17q-4 -7 8 -19q10 -9 26 -17t25 -8q5 0 9.5 -6t10.5 -6
q9 0 9 -3q0 -4 7 -4z" />
    <glyph glyph-name="t" unicode="t" horiz-adv-x="582" 
d="M45 320q14 12 43 12q7 0 11 -1q11 -1 113 -1q89 0 108 -8q6 -3 87 -5q94 -2 118 -8q30 -7 30 -19q0 -5 -10 -5q-12 0 -20 -5q-17 -10 -35 -12.5t-81 -3.5l-89 -1l1 -14q1 -10 -7 -33q-8 -21 -11 -59q-6 -42 -8 -44q-3 -3 -3 -12q0 -8 -6 -19t-11 -13q-17 -6 -30 1
q-13 9 -13 61q0 13 1 19q8 94 11 94q4 0 4 12v12l-34 -3q-38 -4 -44 -4q-2 0 -13.5 -0.5t-17.5 -0.5q-14 0 -25 -6.5t-18 -7.5q-11 -2 -11 -6q0 -3 -13 -3t-13 3q0 2 -13 11q-16 11 -16 33t15 36z" />
    <glyph glyph-name="u" unicode="u" horiz-adv-x="503" 
d="M345 273q10 17 20 17q3 0 3 -4t15 -4q21 0 42 -25q12 -13 13 -34q1 -19 8.5 -51t11.5 -36q3 -3 3 -11q0 -6 3 -6q4 0 8.5 -14.5t4.5 -24.5q0 -24 -20 -24q-15 0 -43 34l-12 15l-9 -11q-11 -13 -12 -17q-2 -8 -28 -19t-45 -12h-9q-57 0 -96 34q-21 18 -34.5 54t-13.5 71
q0 18 2 26q6 32 24 32q10 0 26 -11l18 -13l-3 -30q-1 -7 -1 -18q0 -35 19 -55q20 -22 55 -22q25 0 34 14q2 5 7 5q4 0 11 11.5t7 18.5t3 7q4 0 4 13q0 11 -11 24q-12 13 -13 31q-1 4 -1 11q0 11 9 24zM38 797q-2 -2 -4 -1q-2 2 1 4q6 0 3 -3z" />
    <glyph glyph-name="v" unicode="v" horiz-adv-x="306" 
d="M215 308q3 7 12 7q14 0 33 -16q14 -12 17 -16.5t4 -16.5v-7q0 -16 -8.5 -49.5t-9.5 -38.5q-4 -25 -9 -28q-6 -4 -11 -36q-10 -57 -26 -64q-7 -3 -13 -3q-16 0 -20 21q-2 11 -3 14.5t-5.5 7t-13.5 4.5q-21 3 -41 30q-15 20 -21 26q-8 9 -26 34.5t-18 29.5q0 1 -11 14
q-15 17 -15 48q0 9 1 14q3 24 17 24q11 0 33 -17q4 -3 7.5 -5.5t5.5 -4l4 -3t3 -3l2 -3t2.5 -5t2.5 -6t3 -9t4 -11.5q15 -37 39 -73q13 -19 13 -20q4 -10 10 -9q7 1 14 45q8 46 9 47q2 2 8 39.5t7 38.5z" />
    <glyph glyph-name="w" unicode="w" horiz-adv-x="474" 
d="M73 297h2q10 0 26 -11t16 -18q0 -4 5 -9q5 -4 5 -16q0 -17 -8 -34q-20 -44 -20 -66q0 -1 1 -3v-1q1 -5 9 -4.5t9 -2.5q2 -5 11 6q8 10 13 10t27 22.5t22 27.5q0 6 3 6q7 0 13 45q2 17 8 21q4 3 9 3q16 0 33.5 -20.5t17.5 -44.5q0 -8 -1 -12q-2 -7 2 -26q11 -43 71 -43
q19 0 31 24t12 62v14q0 44 9 49q2 1 5 1q14 0 31 -24l16 -22l-2 -46q-3 -80 -29 -105q-23 -21 -35 -21q-6 0 -8 -5q-5 -9 -11 -6q-1 1 -1 3q0 4 -18 6q-27 4 -61.5 21t-35.5 27q0 3 -12 13l-11 9l-14 -14q-13 -15 -16 -14q-4 0 -27 -18t-31 -18q-6 0 -10 -6t-16 -8
q-4 -1 -13 -1q-27 0 -46.5 22t-23.5 57q-1 4 -1 16q0 21 3 42.5t7 21.5t4 6q0 19 19 73q3 9 11 11z" />
    <glyph glyph-name="x" unicode="x" horiz-adv-x="325" 
d="M234 423q4 3 9 3q10 0 25 -13q13 -13 13 -17q0 -3 7 -5q10 -3 10 -15q0 -9 -4 -17q-8 -15 -10 -15t-17.5 -19.5t-15.5 -22.5q0 -2 -8.5 -14.5t-12.5 -14.5q-1 -1 -25 -34.5t-25 -34.5q-5 -2 -2.5 -8.5t9.5 -10.5q11 -6 30 -38q4 -9 20 -21q16 -13 13 -22q-3 -8 -12 -8
t-9 -6q0 -5 -15 -3t-21 10q-5 7 -11 7q-4 0 -23 13l-18 13l-11 -14q-13 -15 -16 -28q-5 -16 -17 -27q-8 -8 -12 -8q-2 0 -5.5 5t-9.5 5t-10.5 9t-4.5 21q0 13 7 36t12 28q7 7 7 10t6 9q8 8 8 24q0 17 -21 43l-3 6q-3 6 -8 15t-9 18q-23 48 -23 74q0 11 4 18q7 13 15 13
q6 0 13 -4q36 -18 48 -68q10 -47 25 -47q11 0 23 25q10 23 22 37q8 10 30 51q19 40 23 42z" />
    <glyph glyph-name="y" unicode="y" horiz-adv-x="320" 
d="M233 358q13 14 26 1q11 -11 22.5 -27t11.5 -19q0 -5 -6 -16.5t-9 -11.5q-4 0 -4 -7q0 -8 -2 -8q-3 0 -13 -14.5t-10 -18.5t-4 -4t-6 -7q-2 -9 -10 -15q-14 -15 -35 -74.5t-21 -83.5q0 -1 1 -3v-3q1 -3 -2 -6q-2 -1 -8 -11q-4 -9 -17 -17q-10 -5 -12.5 -4.5t-10.5 6.5
q-20 15 -20 58q0 13 1 20q4 26 7 26q1 0 1.5 3.5t1.5 9t2 7.5q5 10 5 13q0 6 -12 15q-8 7 -27 33q-6 10 -15 20t-15 24q-4 9 -16 30q-7 11 -7 29q0 36 23 36h4q15 -3 29.5 -19.5t21.5 -38.5q9 -25 11 -25q4 0 10 -13q7 -15 15 -21l10 -8q2 14 8 19q5 5 5 12t3 7q2 0 14 22
t13 26q1 2 16 27.5t20 30.5z" />
    <glyph glyph-name="z" unicode="z" horiz-adv-x="463" 
d="M209 176q0 -4 1 -4l1 7v1q-2 -1 -2 -4zM39 420q8 8 21 13q5 0 13 -4q25 -11 45 -12.5t120 -1.5q47 0 82 -5q40 -6 44 -20q1 -4 13 -24q8 -13 8 -21t-2 -13q-4 -13 -13 -26q-6 -9 -14.5 -17.5t-10.5 -8.5q-4 0 -13 -10q-10 -11 -32 -27t-30 -24q-19 -19 -22 -19
q-4 0 -26 -22q-12 -12 -17 -10q-2 1 -3 -0.5t-1 -6.5q0 -6 -1 -7.5t-4 -0.5q-6 2 -6 -3q0 -10 45 -10q23 0 51 3q15 2 57 2q62 0 74 -4q2 -1 5.5 -2t5.5 -2l4 -2t3 -4t0 -7q-3 -15 -38 -22q-13 -2 -19 -8q-7 -6 -27.5 -11.5t-34.5 -5.5h-5q-14 2 -17 -3q-2 -4 -82 -8
q-56 -2 -64 -2q-27 0 -37 3.5t-14 13.5q-6 12 -7 12q-3 0 -6.5 13.5t-3.5 24.5q0 2 0.5 4.5t0.5 3.5q1 13 11 17q3 1 18 15t19 14q6 0 0.5 12t-8.5 15q-7 7 -7 27q0 19 7 27q8 9 34 10q27 0 29 -1q1 -1 7.5 -2.5t11.5 -3t6 -3.5q3 -4 3 0q0 5 5 1t13 0t8 9q0 3 8.5 10
t12.5 7q8 0 18 13.5t10 24.5q0 9 -8 12h-11q-13 0 -40 -0.5t-49 -1.5t-23 -1q-7 0 -7 -3q0 -4 -20 -4t-20 5q0 4 -3 1q-1 -2 -7 -3.5t-11 -1t-5 2.5q0 3 -11 5q-14 3 -26.5 18t-13.5 33q-1 19 7 27z" />
    <glyph glyph-name="nbsp" unicode="&#xa0;" 
 />
  </font>
</defs>
</svg>
